<?xml version="1.0" encoding="utf-8" standalone="no"?>
<!DOCTYPE svg PUBLIC "-//W3C//DTD SVG 1.1//EN"
  "http://www.w3.org/Graphics/SVG/1.1/DTD/svg11.dtd">
<!-- Created with matplotlib (http://matplotlib.org/) -->
<svg height="648pt" version="1.1" viewBox="0 0 648 648" width="648pt" xmlns="http://www.w3.org/2000/svg" xmlns:xlink="http://www.w3.org/1999/xlink">
 <defs>
  <style type="text/css">
*{stroke-linecap:butt;stroke-linejoin:round;}
  </style>
 </defs>
 <g id="figure_1">
  <g id="patch_1">
   <path d="M 0 648 
L 648 648 
L 648 0 
L 0 0 
z
" style="fill:#ffffff;"/>
  </g>
  <g id="axes_1">
   <g id="patch_2">
    <path d="M 64.8 602.64 
L 631.8 602.64 
L 631.8 45.36 
L 64.8 45.36 
z
" style="fill:none;"/>
   </g>
   <g id="matplotlib.axis_1">
    <g id="xtick_1">
     <g id="line2d_1">
      <path clip-path="url(#p9dd24fac38)" d="M 86.393003 602.64 
L 86.393003 45.36 
" style="fill:none;stroke:#000000;stroke-linecap:square;stroke-width:0.2;"/>
     </g>
     <g id="line2d_2">
      <defs>
       <path d="M 0 0 
L 0 3.5 
" id="ma4dda2645a" style="stroke:#000000;stroke-width:0.8;"/>
      </defs>
      <g>
       <use style="stroke:#000000;stroke-width:0.8;" x="86.393003" xlink:href="#ma4dda2645a" y="602.64"/>
      </g>
     </g>
     <g id="text_1">
      <!-- 1000 -->
      <defs>
       <path d="M 34.90625 0 
L 27 0 
L 27 50.875 
Q 27 57.234375 27.390625 62.890625 
Q 26.375 61.859375 25.09375 60.734375 
Q 23.828125 59.625 13.484375 51.21875 
L 9.1875 56.78125 
L 28.078125 71.390625 
L 34.90625 71.390625 
z
" id="OpenSans-31"/>
       <path d="M 52.203125 35.796875 
Q 52.203125 17.28125 46.359375 8.140625 
Q 40.53125 -0.984375 28.515625 -0.984375 
Q 17 -0.984375 10.984375 8.359375 
Q 4.984375 17.71875 4.984375 35.796875 
Q 4.984375 54.4375 10.796875 63.46875 
Q 16.609375 72.515625 28.515625 72.515625 
Q 40.140625 72.515625 46.171875 63.078125 
Q 52.203125 53.65625 52.203125 35.796875 
z
M 13.1875 35.796875 
Q 13.1875 20.21875 16.84375 13.109375 
Q 20.515625 6 28.515625 6 
Q 36.625 6 40.25 13.203125 
Q 43.890625 20.40625 43.890625 35.796875 
Q 43.890625 51.171875 40.25 58.328125 
Q 36.625 65.484375 28.515625 65.484375 
Q 20.515625 65.484375 16.84375 58.421875 
Q 13.1875 51.375 13.1875 35.796875 
z
" id="OpenSans-30"/>
      </defs>
      <g transform="translate(70.384878 620.277812)scale(0.14 -0.14)">
       <use xlink:href="#OpenSans-31"/>
       <use x="57.177734" xlink:href="#OpenSans-30"/>
       <use x="114.355469" xlink:href="#OpenSans-30"/>
       <use x="171.533203" xlink:href="#OpenSans-30"/>
      </g>
     </g>
    </g>
    <g id="xtick_2">
     <g id="line2d_3">
      <path clip-path="url(#p9dd24fac38)" d="M 128.635309 602.64 
L 128.635309 45.36 
" style="fill:none;stroke:#000000;stroke-linecap:square;stroke-width:0.2;"/>
     </g>
     <g id="line2d_4">
      <g>
       <use style="stroke:#000000;stroke-width:0.8;" x="128.635309" xlink:href="#ma4dda2645a" y="602.64"/>
      </g>
     </g>
     <g id="text_2">
      <!-- 700 -->
      <defs>
       <path d="M 13.921875 0 
L 43.5 63.921875 
L 4.59375 63.921875 
L 4.59375 71.390625 
L 52.09375 71.390625 
L 52.09375 64.890625 
L 22.90625 0 
z
" id="OpenSans-37"/>
      </defs>
      <g transform="translate(116.629215 620.277812)scale(0.14 -0.14)">
       <use xlink:href="#OpenSans-37"/>
       <use x="57.177734" xlink:href="#OpenSans-30"/>
       <use x="114.355469" xlink:href="#OpenSans-30"/>
      </g>
     </g>
    </g>
    <g id="xtick_3">
     <g id="line2d_5">
      <path clip-path="url(#p9dd24fac38)" d="M 168.484936 602.64 
L 168.484936 45.36 
" style="fill:none;stroke:#000000;stroke-linecap:square;stroke-width:0.2;"/>
     </g>
     <g id="line2d_6">
      <g>
       <use style="stroke:#000000;stroke-width:0.8;" x="168.484936" xlink:href="#ma4dda2645a" y="602.64"/>
      </g>
     </g>
     <g id="text_3">
      <!-- 500 -->
      <defs>
       <path d="M 27.203125 43.609375 
Q 38.484375 43.609375 44.953125 38.015625 
Q 51.421875 32.421875 51.421875 22.703125 
Q 51.421875 11.625 44.359375 5.3125 
Q 37.3125 -0.984375 24.90625 -0.984375 
Q 12.84375 -0.984375 6.5 2.875 
L 6.5 10.6875 
Q 9.90625 8.5 14.984375 7.25 
Q 20.0625 6 25 6 
Q 33.59375 6 38.34375 10.046875 
Q 43.109375 14.109375 43.109375 21.78125 
Q 43.109375 36.71875 24.8125 36.71875 
Q 20.171875 36.71875 12.40625 35.296875 
L 8.203125 37.984375 
L 10.890625 71.390625 
L 46.390625 71.390625 
L 46.390625 63.921875 
L 17.828125 63.921875 
L 16.015625 42.484375 
Q 21.625 43.609375 27.203125 43.609375 
z
" id="OpenSans-35"/>
      </defs>
      <g transform="translate(156.478842 620.277812)scale(0.14 -0.14)">
       <use xlink:href="#OpenSans-35"/>
       <use x="57.177734" xlink:href="#OpenSans-30"/>
       <use x="114.355469" xlink:href="#OpenSans-30"/>
      </g>
     </g>
    </g>
    <g id="xtick_4">
     <g id="line2d_7">
      <path clip-path="url(#p9dd24fac38)" d="M 228.983866 602.64 
L 228.983866 45.36 
" style="fill:none;stroke:#000000;stroke-linecap:square;stroke-width:0.2;"/>
     </g>
     <g id="line2d_8">
      <g>
       <use style="stroke:#000000;stroke-width:0.8;" x="228.983866" xlink:href="#ma4dda2645a" y="602.64"/>
      </g>
     </g>
     <g id="text_4">
      <!-- 300 -->
      <defs>
       <path d="M 49.125 54.59375 
Q 49.125 47.75 45.28125 43.40625 
Q 41.453125 39.0625 34.421875 37.59375 
L 34.421875 37.203125 
Q 43.015625 36.140625 47.15625 31.734375 
Q 51.3125 27.34375 51.3125 20.21875 
Q 51.3125 10.015625 44.234375 4.515625 
Q 37.15625 -0.984375 24.125 -0.984375 
Q 18.453125 -0.984375 13.734375 -0.125 
Q 9.03125 0.734375 4.59375 2.875 
L 4.59375 10.59375 
Q 9.234375 8.296875 14.484375 7.09375 
Q 19.734375 5.90625 24.421875 5.90625 
Q 42.921875 5.90625 42.921875 20.40625 
Q 42.921875 33.40625 22.515625 33.40625 
L 15.484375 33.40625 
L 15.484375 40.375 
L 22.609375 40.375 
Q 30.953125 40.375 35.828125 44.0625 
Q 40.71875 47.75 40.71875 54.296875 
Q 40.71875 59.515625 37.125 62.5 
Q 33.546875 65.484375 27.390625 65.484375 
Q 22.703125 65.484375 18.546875 64.203125 
Q 14.40625 62.9375 9.078125 59.515625 
L 4.984375 64.984375 
Q 9.375 68.453125 15.109375 70.421875 
Q 20.84375 72.40625 27.203125 72.40625 
Q 37.59375 72.40625 43.359375 67.640625 
Q 49.125 62.890625 49.125 54.59375 
z
" id="OpenSans-33"/>
      </defs>
      <g transform="translate(216.977772 620.277812)scale(0.14 -0.14)">
       <use xlink:href="#OpenSans-33"/>
       <use x="57.177734" xlink:href="#OpenSans-30"/>
       <use x="114.355469" xlink:href="#OpenSans-30"/>
      </g>
     </g>
    </g>
    <g id="xtick_5">
     <g id="line2d_9">
      <path clip-path="url(#p9dd24fac38)" d="M 277.004568 602.64 
L 277.004568 45.36 
" style="fill:none;stroke:#000000;stroke-linecap:square;stroke-width:0.2;"/>
     </g>
     <g id="line2d_10">
      <g>
       <use style="stroke:#000000;stroke-width:0.8;" x="277.004568" xlink:href="#ma4dda2645a" y="602.64"/>
      </g>
     </g>
     <g id="text_5">
      <!-- 200 -->
      <defs>
       <path d="M 51.8125 0 
L 4.890625 0 
L 4.890625 6.984375 
L 23.6875 25.875 
Q 32.28125 34.578125 35.015625 38.28125 
Q 37.75 42 39.109375 45.515625 
Q 40.484375 49.03125 40.484375 53.078125 
Q 40.484375 58.796875 37.015625 62.140625 
Q 33.546875 65.484375 27.390625 65.484375 
Q 22.953125 65.484375 18.96875 64.015625 
Q 14.984375 62.546875 10.109375 58.6875 
L 5.8125 64.203125 
Q 15.671875 72.40625 27.296875 72.40625 
Q 37.359375 72.40625 43.0625 67.25 
Q 48.78125 62.109375 48.78125 53.421875 
Q 48.78125 46.625 44.96875 39.984375 
Q 41.15625 33.34375 30.71875 23.1875 
L 15.09375 7.90625 
L 15.09375 7.515625 
L 51.8125 7.515625 
z
" id="OpenSans-32"/>
      </defs>
      <g transform="translate(264.998475 620.277812)scale(0.14 -0.14)">
       <use xlink:href="#OpenSans-32"/>
       <use x="57.177734" xlink:href="#OpenSans-30"/>
       <use x="114.355469" xlink:href="#OpenSans-30"/>
      </g>
     </g>
    </g>
    <g id="xtick_6">
     <g id="line2d_11">
      <path clip-path="url(#p9dd24fac38)" d="M 311.075799 602.64 
L 311.075799 45.36 
" style="fill:none;stroke:#000000;stroke-linecap:square;stroke-width:0.2;"/>
     </g>
     <g id="line2d_12">
      <g>
       <use style="stroke:#000000;stroke-width:0.8;" x="311.075799" xlink:href="#ma4dda2645a" y="602.64"/>
      </g>
     </g>
     <g id="text_6">
      <!-- 150 -->
      <g transform="translate(299.069705 620.277812)scale(0.14 -0.14)">
       <use xlink:href="#OpenSans-31"/>
       <use x="57.177734" xlink:href="#OpenSans-35"/>
       <use x="114.355469" xlink:href="#OpenSans-30"/>
      </g>
     </g>
    </g>
    <g id="xtick_7">
     <g id="line2d_13">
      <path clip-path="url(#p9dd24fac38)" d="M 359.096501 602.64 
L 359.096501 45.36 
" style="fill:none;stroke:#000000;stroke-linecap:square;stroke-width:0.2;"/>
     </g>
     <g id="line2d_14">
      <g>
       <use style="stroke:#000000;stroke-width:0.8;" x="359.096501" xlink:href="#ma4dda2645a" y="602.64"/>
      </g>
     </g>
     <g id="text_7">
      <!-- 100 -->
      <g transform="translate(347.090408 620.277812)scale(0.14 -0.14)">
       <use xlink:href="#OpenSans-31"/>
       <use x="57.177734" xlink:href="#OpenSans-30"/>
       <use x="114.355469" xlink:href="#OpenSans-30"/>
      </g>
     </g>
    </g>
    <g id="xtick_8">
     <g id="line2d_15">
      <path clip-path="url(#p9dd24fac38)" d="M 401.338808 602.64 
L 401.338808 45.36 
" style="fill:none;stroke:#000000;stroke-linecap:square;stroke-width:0.2;"/>
     </g>
     <g id="line2d_16">
      <g>
       <use style="stroke:#000000;stroke-width:0.8;" x="401.338808" xlink:href="#ma4dda2645a" y="602.64"/>
      </g>
     </g>
     <g id="text_8">
      <!-- 70 -->
      <g transform="translate(393.334745 620.277812)scale(0.14 -0.14)">
       <use xlink:href="#OpenSans-37"/>
       <use x="57.177734" xlink:href="#OpenSans-30"/>
      </g>
     </g>
    </g>
    <g id="xtick_9">
     <g id="line2d_17">
      <path clip-path="url(#p9dd24fac38)" d="M 441.188434 602.64 
L 441.188434 45.36 
" style="fill:none;stroke:#000000;stroke-linecap:square;stroke-width:0.2;"/>
     </g>
     <g id="line2d_18">
      <g>
       <use style="stroke:#000000;stroke-width:0.8;" x="441.188434" xlink:href="#ma4dda2645a" y="602.64"/>
      </g>
     </g>
     <g id="text_9">
      <!-- 50 -->
      <g transform="translate(433.184372 620.277812)scale(0.14 -0.14)">
       <use xlink:href="#OpenSans-35"/>
       <use x="57.177734" xlink:href="#OpenSans-30"/>
      </g>
     </g>
    </g>
    <g id="xtick_10">
     <g id="line2d_19">
      <path clip-path="url(#p9dd24fac38)" d="M 467.616134 602.64 
L 467.616134 45.36 
" style="fill:none;stroke:#000000;stroke-linecap:square;stroke-width:0.2;"/>
     </g>
     <g id="line2d_20">
      <g>
       <use style="stroke:#000000;stroke-width:0.8;" x="467.616134" xlink:href="#ma4dda2645a" y="602.64"/>
      </g>
     </g>
     <g id="text_10">
      <!-- 40 -->
      <defs>
       <path d="M 55.171875 16.40625 
L 44.578125 16.40625 
L 44.578125 0 
L 36.8125 0 
L 36.8125 16.40625 
L 2.09375 16.40625 
L 2.09375 23.484375 
L 35.984375 71.78125 
L 44.578125 71.78125 
L 44.578125 23.78125 
L 55.171875 23.78125 
z
M 36.8125 23.78125 
L 36.8125 47.515625 
Q 36.8125 54.5 37.3125 63.28125 
L 36.921875 63.28125 
Q 34.578125 58.59375 32.515625 55.515625 
L 10.203125 23.78125 
z
" id="OpenSans-34"/>
      </defs>
      <g transform="translate(459.612072 620.277812)scale(0.14 -0.14)">
       <use xlink:href="#OpenSans-34"/>
       <use x="57.177734" xlink:href="#OpenSans-30"/>
      </g>
     </g>
    </g>
    <g id="xtick_11">
     <g id="line2d_21">
      <path clip-path="url(#p9dd24fac38)" d="M 523.280367 602.64 
L 523.280367 45.36 
" style="fill:none;stroke:#000000;stroke-linecap:square;stroke-width:0.2;"/>
     </g>
     <g id="line2d_22">
      <g>
       <use style="stroke:#000000;stroke-width:0.8;" x="523.280367" xlink:href="#ma4dda2645a" y="602.64"/>
      </g>
     </g>
     <g id="text_11">
      <!-- 25 -->
      <g transform="translate(515.276305 620.277812)scale(0.14 -0.14)">
       <use xlink:href="#OpenSans-32"/>
       <use x="57.177734" xlink:href="#OpenSans-35"/>
      </g>
     </g>
    </g>
    <g id="xtick_12">
     <g id="line2d_23">
      <path clip-path="url(#p9dd24fac38)" d="M 583.779298 602.64 
L 583.779298 45.36 
" style="fill:none;stroke:#000000;stroke-linecap:square;stroke-width:0.2;"/>
     </g>
     <g id="line2d_24">
      <g>
       <use style="stroke:#000000;stroke-width:0.8;" x="583.779298" xlink:href="#ma4dda2645a" y="602.64"/>
      </g>
     </g>
     <g id="text_12">
      <!-- 15 -->
      <g transform="translate(575.775235 620.277812)scale(0.14 -0.14)">
       <use xlink:href="#OpenSans-31"/>
       <use x="57.177734" xlink:href="#OpenSans-35"/>
      </g>
     </g>
    </g>
    <g id="xtick_13">
     <g id="line2d_25">
      <path clip-path="url(#p9dd24fac38)" d="M 631.8 602.64 
L 631.8 45.36 
" style="fill:none;stroke:#000000;stroke-linecap:square;stroke-width:0.2;"/>
     </g>
     <g id="line2d_26">
      <g>
       <use style="stroke:#000000;stroke-width:0.8;" x="631.8" xlink:href="#ma4dda2645a" y="602.64"/>
      </g>
     </g>
     <g id="text_13">
      <!-- 10 -->
      <g transform="translate(623.795937 620.277812)scale(0.14 -0.14)">
       <use xlink:href="#OpenSans-31"/>
       <use x="57.177734" xlink:href="#OpenSans-30"/>
      </g>
     </g>
    </g>
    <g id="text_14">
     <!-- Wave-length [km] -->
     <defs>
      <path d="M 72.125 0 
L 63.921875 0 
L 49.515625 47.796875 
Q 48.484375 50.984375 47.21875 55.8125 
Q 45.953125 60.640625 45.90625 61.625 
Q 44.828125 55.171875 42.484375 47.515625 
L 28.515625 0 
L 20.3125 0 
L 1.3125 71.390625 
L 10.109375 71.390625 
L 21.390625 27.296875 
Q 23.734375 18.015625 24.8125 10.5 
Q 26.125 19.4375 28.71875 27.984375 
L 41.5 71.390625 
L 50.296875 71.390625 
L 63.71875 27.59375 
Q 66.0625 20.015625 67.671875 10.5 
Q 68.609375 17.4375 71.1875 27.390625 
L 82.421875 71.390625 
L 91.21875 71.390625 
z
" id="OpenSans-57"/>
      <path d="M 41.5 0 
L 39.890625 7.625 
L 39.5 7.625 
Q 35.5 2.59375 31.515625 0.796875 
Q 27.546875 -0.984375 21.578125 -0.984375 
Q 13.625 -0.984375 9.109375 3.125 
Q 4.59375 7.234375 4.59375 14.796875 
Q 4.59375 31 30.515625 31.78125 
L 39.59375 32.078125 
L 39.59375 35.40625 
Q 39.59375 41.703125 36.890625 44.703125 
Q 34.1875 47.703125 28.21875 47.703125 
Q 21.53125 47.703125 13.09375 43.609375 
L 10.59375 49.8125 
Q 14.546875 51.953125 19.25 53.171875 
Q 23.96875 54.390625 28.71875 54.390625 
Q 38.28125 54.390625 42.890625 50.140625 
Q 47.515625 45.90625 47.515625 36.53125 
L 47.515625 0 
z
M 23.1875 5.71875 
Q 30.765625 5.71875 35.078125 9.859375 
Q 39.40625 14.015625 39.40625 21.484375 
L 39.40625 26.3125 
L 31.296875 25.984375 
Q 21.625 25.640625 17.359375 22.96875 
Q 13.09375 20.3125 13.09375 14.703125 
Q 13.09375 10.296875 15.75 8 
Q 18.40625 5.71875 23.1875 5.71875 
z
" id="OpenSans-61"/>
      <path d="M 20.3125 0 
L 0 53.515625 
L 8.6875 53.515625 
L 20.21875 21.78125 
Q 24.125 10.640625 24.8125 7.328125 
L 25.203125 7.328125 
Q 25.734375 9.90625 28.59375 18.03125 
Q 31.453125 26.171875 41.40625 53.515625 
L 50.09375 53.515625 
L 29.78125 0 
z
" id="OpenSans-76"/>
      <path d="M 31.203125 -0.984375 
Q 19.34375 -0.984375 12.46875 6.25 
Q 5.609375 13.484375 5.609375 26.3125 
Q 5.609375 39.265625 11.984375 46.875 
Q 18.359375 54.5 29.109375 54.5 
Q 39.15625 54.5 45.015625 47.875 
Q 50.875 41.265625 50.875 30.421875 
L 50.875 25.296875 
L 14.015625 25.296875 
Q 14.265625 15.875 18.78125 10.984375 
Q 23.296875 6.109375 31.5 6.109375 
Q 40.140625 6.109375 48.578125 9.71875 
L 48.578125 2.484375 
Q 44.28125 0.640625 40.453125 -0.171875 
Q 36.625 -0.984375 31.203125 -0.984375 
z
M 29 47.703125 
Q 22.5625 47.703125 18.71875 43.5 
Q 14.890625 39.3125 14.203125 31.890625 
L 42.1875 31.890625 
Q 42.1875 39.546875 38.765625 43.625 
Q 35.359375 47.703125 29 47.703125 
z
" id="OpenSans-65"/>
      <path d="M 4.109375 23.09375 
L 4.109375 30.515625 
L 28.078125 30.515625 
L 28.078125 23.09375 
z
" id="OpenSans-2d"/>
      <path d="M 16.703125 0 
L 8.59375 0 
L 8.59375 75.984375 
L 16.703125 75.984375 
z
" id="OpenSans-6c"/>
      <path d="M 45.21875 0 
L 45.21875 34.625 
Q 45.21875 41.15625 42.234375 44.375 
Q 39.265625 47.609375 32.90625 47.609375 
Q 24.515625 47.609375 20.609375 43.0625 
Q 16.703125 38.53125 16.703125 28.078125 
L 16.703125 0 
L 8.59375 0 
L 8.59375 53.515625 
L 15.1875 53.515625 
L 16.5 46.1875 
L 16.890625 46.1875 
Q 19.390625 50.140625 23.875 52.3125 
Q 28.375 54.5 33.890625 54.5 
Q 43.5625 54.5 48.4375 49.828125 
Q 53.328125 45.171875 53.328125 34.90625 
L 53.328125 0 
z
" id="OpenSans-6e"/>
      <path d="M 52.390625 53.515625 
L 52.390625 48.390625 
L 42.484375 47.21875 
Q 43.84375 45.515625 44.921875 42.75 
Q 46 39.984375 46 36.53125 
Q 46 28.65625 40.625 23.96875 
Q 35.25 19.28125 25.875 19.28125 
Q 23.484375 19.28125 21.390625 19.671875 
Q 16.21875 16.9375 16.21875 12.796875 
Q 16.21875 10.59375 18.015625 9.546875 
Q 19.828125 8.5 24.21875 8.5 
L 33.6875 8.5 
Q 42.390625 8.5 47.046875 4.828125 
Q 51.703125 1.171875 51.703125 -5.8125 
Q 51.703125 -14.703125 44.578125 -19.359375 
Q 37.453125 -24.03125 23.78125 -24.03125 
Q 13.28125 -24.03125 7.59375 -20.125 
Q 1.90625 -16.21875 1.90625 -9.078125 
Q 1.90625 -4.203125 5.03125 -0.625 
Q 8.15625 2.9375 13.8125 4.203125 
Q 11.765625 5.125 10.375 7.078125 
Q 8.984375 9.03125 8.984375 11.625 
Q 8.984375 14.546875 10.546875 16.75 
Q 12.109375 18.953125 15.484375 21 
Q 11.328125 22.703125 8.71875 26.796875 
Q 6.109375 30.90625 6.109375 36.1875 
Q 6.109375 44.96875 11.375 49.734375 
Q 16.65625 54.5 26.3125 54.5 
Q 30.515625 54.5 33.890625 53.515625 
z
M 9.71875 -8.984375 
Q 9.71875 -13.328125 13.375 -15.578125 
Q 17.046875 -17.828125 23.875 -17.828125 
Q 34.078125 -17.828125 38.984375 -14.765625 
Q 43.890625 -11.71875 43.890625 -6.5 
Q 43.890625 -2.15625 41.203125 -0.46875 
Q 38.53125 1.21875 31.109375 1.21875 
L 21.390625 1.21875 
Q 15.875 1.21875 12.796875 -1.40625 
Q 9.71875 -4.046875 9.71875 -8.984375 
z
M 14.109375 36.375 
Q 14.109375 30.765625 17.28125 27.875 
Q 20.453125 25 26.125 25 
Q 37.984375 25 37.984375 36.53125 
Q 37.984375 48.578125 25.984375 48.578125 
Q 20.265625 48.578125 17.1875 45.5 
Q 14.109375 42.4375 14.109375 36.375 
z
" id="OpenSans-67"/>
      <path d="M 25.875 5.71875 
Q 28.03125 5.71875 30.03125 6.03125 
Q 32.03125 6.34375 33.203125 6.6875 
L 33.203125 0.484375 
Q 31.890625 -0.140625 29.328125 -0.5625 
Q 26.765625 -0.984375 24.703125 -0.984375 
Q 9.1875 -0.984375 9.1875 15.375 
L 9.1875 47.21875 
L 1.515625 47.21875 
L 1.515625 51.125 
L 9.1875 54.5 
L 12.59375 65.921875 
L 17.28125 65.921875 
L 17.28125 53.515625 
L 32.8125 53.515625 
L 32.8125 47.21875 
L 17.28125 47.21875 
L 17.28125 15.71875 
Q 17.28125 10.890625 19.578125 8.296875 
Q 21.875 5.71875 25.875 5.71875 
z
" id="OpenSans-74"/>
      <path d="M 45.21875 0 
L 45.21875 34.625 
Q 45.21875 41.15625 42.234375 44.375 
Q 39.265625 47.609375 32.90625 47.609375 
Q 24.46875 47.609375 20.578125 43.015625 
Q 16.703125 38.421875 16.703125 27.984375 
L 16.703125 0 
L 8.59375 0 
L 8.59375 75.984375 
L 16.703125 75.984375 
L 16.703125 52.984375 
Q 16.703125 48.828125 16.3125 46.09375 
L 16.796875 46.09375 
Q 19.1875 49.953125 23.609375 52.171875 
Q 28.03125 54.390625 33.6875 54.390625 
Q 43.5 54.390625 48.40625 49.71875 
Q 53.328125 45.0625 53.328125 34.90625 
L 53.328125 0 
z
" id="OpenSans-68"/>
      <path id="OpenSans-20"/>
      <path d="M 30.421875 -15.828125 
L 8.109375 -15.828125 
L 8.109375 71.390625 
L 30.421875 71.390625 
L 30.421875 64.5 
L 16.3125 64.5 
L 16.3125 -8.890625 
L 30.421875 -8.890625 
z
" id="OpenSans-5b"/>
      <path d="M 16.609375 27.390625 
Q 18.703125 30.375 23 35.203125 
L 40.28125 53.515625 
L 49.90625 53.515625 
L 28.21875 30.71875 
L 51.421875 0 
L 41.609375 0 
L 22.703125 25.296875 
L 16.609375 20.015625 
L 16.609375 0 
L 8.59375 0 
L 8.59375 75.984375 
L 16.609375 75.984375 
L 16.609375 35.6875 
Q 16.609375 33.015625 16.21875 27.390625 
z
" id="OpenSans-6b"/>
      <path d="M 76.8125 0 
L 76.8125 34.8125 
Q 76.8125 41.21875 74.078125 44.40625 
Q 71.34375 47.609375 65.578125 47.609375 
Q 58.015625 47.609375 54.390625 43.265625 
Q 50.78125 38.921875 50.78125 29.890625 
L 50.78125 0 
L 42.671875 0 
L 42.671875 34.8125 
Q 42.671875 41.21875 39.9375 44.40625 
Q 37.203125 47.609375 31.390625 47.609375 
Q 23.78125 47.609375 20.234375 43.046875 
Q 16.703125 38.484375 16.703125 28.078125 
L 16.703125 0 
L 8.59375 0 
L 8.59375 53.515625 
L 15.1875 53.515625 
L 16.5 46.1875 
L 16.890625 46.1875 
Q 19.1875 50.09375 23.359375 52.296875 
Q 27.546875 54.5 32.71875 54.5 
Q 45.265625 54.5 49.125 45.40625 
L 49.515625 45.40625 
Q 51.90625 49.609375 56.4375 52.046875 
Q 60.984375 54.5 66.796875 54.5 
Q 75.875 54.5 80.390625 49.828125 
Q 84.90625 45.171875 84.90625 34.90625 
L 84.90625 0 
z
" id="OpenSans-6d"/>
      <path d="M 2.484375 -8.890625 
L 16.609375 -8.890625 
L 16.609375 64.5 
L 2.484375 64.5 
L 2.484375 71.390625 
L 24.8125 71.390625 
L 24.8125 -15.828125 
L 2.484375 -15.828125 
z
" id="OpenSans-5d"/>
     </defs>
     <g transform="translate(291.035625 638.28)scale(0.14 -0.14)">
      <use xlink:href="#OpenSans-57"/>
      <use x="92.546875" xlink:href="#OpenSans-61"/>
      <use x="148.162109" xlink:href="#OpenSans-76"/>
      <use x="198.259766" xlink:href="#OpenSans-65"/>
      <use x="254.363281" xlink:href="#OpenSans-2d"/>
      <use x="286.541016" xlink:href="#OpenSans-6c"/>
      <use x="311.833984" xlink:href="#OpenSans-65"/>
      <use x="367.9375" xlink:href="#OpenSans-6e"/>
      <use x="429.314453" xlink:href="#OpenSans-67"/>
      <use x="484.099609" xlink:href="#OpenSans-74"/>
      <use x="519.402344" xlink:href="#OpenSans-68"/>
      <use x="580.779297" xlink:href="#OpenSans-20"/>
      <use x="606.755859" xlink:href="#OpenSans-5b"/>
      <use x="639.666016" xlink:href="#OpenSans-6b"/>
      <use x="692.15625" xlink:href="#OpenSans-6d"/>
      <use x="785.173828" xlink:href="#OpenSans-5d"/>
     </g>
    </g>
   </g>
   <g id="matplotlib.axis_2">
    <g id="ytick_1">
     <g id="line2d_27">
      <path clip-path="url(#p9dd24fac38)" d="M 64.8 602.64 
L 631.8 602.64 
" style="fill:none;stroke:#000000;stroke-linecap:square;stroke-width:0.2;"/>
     </g>
     <g id="line2d_28">
      <defs>
       <path d="M 0 0 
L -3.5 0 
" id="mbdc0a5d07f" style="stroke:#000000;stroke-width:0.8;"/>
      </defs>
      <g>
       <use style="stroke:#000000;stroke-width:0.8;" x="64.8" xlink:href="#mbdc0a5d07f" y="602.64"/>
      </g>
     </g>
     <g id="text_15">
      <!-- $\mathregular{10^{-6}}$ -->
      <defs>
       <path d="M 5.078125 31.890625 
L 5.078125 38.625 
L 52 38.625 
L 52 31.890625 
z
" id="OpenSans-2212"/>
       <path d="M 5.71875 30.515625 
Q 5.71875 51.5625 13.890625 61.984375 
Q 22.078125 72.40625 38.09375 72.40625 
Q 43.609375 72.40625 46.78125 71.484375 
L 46.78125 64.5 
Q 43.015625 65.71875 38.1875 65.71875 
Q 26.703125 65.71875 20.640625 58.5625 
Q 14.59375 51.421875 14.015625 36.078125 
L 14.59375 36.078125 
Q 19.96875 44.484375 31.59375 44.484375 
Q 41.21875 44.484375 46.75 38.671875 
Q 52.296875 32.859375 52.296875 22.90625 
Q 52.296875 11.765625 46.21875 5.390625 
Q 40.140625 -0.984375 29.78125 -0.984375 
Q 18.703125 -0.984375 12.203125 7.34375 
Q 5.71875 15.671875 5.71875 30.515625 
z
M 29.6875 5.90625 
Q 36.625 5.90625 40.453125 10.28125 
Q 44.28125 14.65625 44.28125 22.90625 
Q 44.28125 29.984375 40.71875 34.03125 
Q 37.15625 38.09375 30.078125 38.09375 
Q 25.6875 38.09375 22.015625 36.28125 
Q 18.359375 34.46875 16.1875 31.296875 
Q 14.015625 28.125 14.015625 24.703125 
Q 14.015625 19.671875 15.96875 15.328125 
Q 17.921875 10.984375 21.5 8.4375 
Q 25.09375 5.90625 29.6875 5.90625 
z
" id="OpenSans-36"/>
      </defs>
      <g transform="translate(29.94 607.958906)scale(0.14 -0.14)">
       <use transform="translate(0 0.854688)" xlink:href="#OpenSans-31"/>
       <use transform="translate(57.177734 0.854688)" xlink:href="#OpenSans-30"/>
       <use transform="translate(115.291992 38.315625)scale(0.7)" xlink:href="#OpenSans-2212"/>
       <use transform="translate(155.316406 38.315625)scale(0.7)" xlink:href="#OpenSans-36"/>
      </g>
     </g>
    </g>
    <g id="ytick_2">
     <g id="line2d_29">
      <path clip-path="url(#p9dd24fac38)" d="M 64.8 532.98 
L 631.8 532.98 
" style="fill:none;stroke:#000000;stroke-linecap:square;stroke-width:0.2;"/>
     </g>
     <g id="line2d_30">
      <g>
       <use style="stroke:#000000;stroke-width:0.8;" x="64.8" xlink:href="#mbdc0a5d07f" y="532.98"/>
      </g>
     </g>
     <g id="text_16">
      <!-- $\mathregular{10^{-5}}$ -->
      <g transform="translate(29.94 538.298906)scale(0.14 -0.14)">
       <use transform="translate(0 0.565625)" xlink:href="#OpenSans-31"/>
       <use transform="translate(57.177734 0.565625)" xlink:href="#OpenSans-30"/>
       <use transform="translate(115.291992 38.026563)scale(0.7)" xlink:href="#OpenSans-2212"/>
       <use transform="translate(155.316406 38.026563)scale(0.7)" xlink:href="#OpenSans-35"/>
      </g>
     </g>
    </g>
    <g id="ytick_3">
     <g id="line2d_31">
      <path clip-path="url(#p9dd24fac38)" d="M 64.8 463.32 
L 631.8 463.32 
" style="fill:none;stroke:#000000;stroke-linecap:square;stroke-width:0.2;"/>
     </g>
     <g id="line2d_32">
      <g>
       <use style="stroke:#000000;stroke-width:0.8;" x="64.8" xlink:href="#mbdc0a5d07f" y="463.32"/>
      </g>
     </g>
     <g id="text_17">
      <!-- $\mathregular{10^{-4}}$ -->
      <g transform="translate(29.94 468.638906)scale(0.14 -0.14)">
       <use transform="translate(0 0.292188)" xlink:href="#OpenSans-31"/>
       <use transform="translate(57.177734 0.292188)" xlink:href="#OpenSans-30"/>
       <use transform="translate(115.291992 37.753125)scale(0.7)" xlink:href="#OpenSans-2212"/>
       <use transform="translate(155.316406 37.753125)scale(0.7)" xlink:href="#OpenSans-34"/>
      </g>
     </g>
    </g>
    <g id="ytick_4">
     <g id="line2d_33">
      <path clip-path="url(#p9dd24fac38)" d="M 64.8 393.66 
L 631.8 393.66 
" style="fill:none;stroke:#000000;stroke-linecap:square;stroke-width:0.2;"/>
     </g>
     <g id="line2d_34">
      <g>
       <use style="stroke:#000000;stroke-width:0.8;" x="64.8" xlink:href="#mbdc0a5d07f" y="393.66"/>
      </g>
     </g>
     <g id="text_18">
      <!-- $\mathregular{10^{-3}}$ -->
      <g transform="translate(29.94 398.978906)scale(0.14 -0.14)">
       <use transform="translate(0 0.854688)" xlink:href="#OpenSans-31"/>
       <use transform="translate(57.177734 0.854688)" xlink:href="#OpenSans-30"/>
       <use transform="translate(115.291992 38.315625)scale(0.7)" xlink:href="#OpenSans-2212"/>
       <use transform="translate(155.316406 38.315625)scale(0.7)" xlink:href="#OpenSans-33"/>
      </g>
     </g>
    </g>
    <g id="ytick_5">
     <g id="line2d_35">
      <path clip-path="url(#p9dd24fac38)" d="M 64.8 324 
L 631.8 324 
" style="fill:none;stroke:#000000;stroke-linecap:square;stroke-width:0.2;"/>
     </g>
     <g id="line2d_36">
      <g>
       <use style="stroke:#000000;stroke-width:0.8;" x="64.8" xlink:href="#mbdc0a5d07f" y="324"/>
      </g>
     </g>
     <g id="text_19">
      <!-- $\mathregular{10^{-2}}$ -->
      <g transform="translate(29.94 329.318906)scale(0.14 -0.14)">
       <use transform="translate(0 0.854688)" xlink:href="#OpenSans-31"/>
       <use transform="translate(57.177734 0.854688)" xlink:href="#OpenSans-30"/>
       <use transform="translate(115.291992 38.315625)scale(0.7)" xlink:href="#OpenSans-2212"/>
       <use transform="translate(155.316406 38.315625)scale(0.7)" xlink:href="#OpenSans-32"/>
      </g>
     </g>
    </g>
    <g id="ytick_6">
     <g id="line2d_37">
      <path clip-path="url(#p9dd24fac38)" d="M 64.8 254.34 
L 631.8 254.34 
" style="fill:none;stroke:#000000;stroke-linecap:square;stroke-width:0.2;"/>
     </g>
     <g id="line2d_38">
      <g>
       <use style="stroke:#000000;stroke-width:0.8;" x="64.8" xlink:href="#mbdc0a5d07f" y="254.34"/>
      </g>
     </g>
     <g id="text_20">
      <!-- $\mathregular{10^{-1}}$ -->
      <g transform="translate(29.94 259.658906)scale(0.14 -0.14)">
       <use transform="translate(0 0.565625)" xlink:href="#OpenSans-31"/>
       <use transform="translate(57.177734 0.565625)" xlink:href="#OpenSans-30"/>
       <use transform="translate(115.291992 38.026563)scale(0.7)" xlink:href="#OpenSans-2212"/>
       <use transform="translate(155.316406 38.026563)scale(0.7)" xlink:href="#OpenSans-31"/>
      </g>
     </g>
    </g>
    <g id="ytick_7">
     <g id="line2d_39">
      <path clip-path="url(#p9dd24fac38)" d="M 64.8 184.68 
L 631.8 184.68 
" style="fill:none;stroke:#000000;stroke-linecap:square;stroke-width:0.2;"/>
     </g>
     <g id="line2d_40">
      <g>
       <use style="stroke:#000000;stroke-width:0.8;" x="64.8" xlink:href="#mbdc0a5d07f" y="184.68"/>
      </g>
     </g>
     <g id="text_21">
      <!-- $\mathregular{10^{0}}$ -->
      <g transform="translate(35.68 189.998906)scale(0.14 -0.14)">
       <use transform="translate(0 0.778125)" xlink:href="#OpenSans-31"/>
       <use transform="translate(57.177734 0.778125)" xlink:href="#OpenSans-30"/>
       <use transform="translate(115.291992 38.239063)scale(0.7)" xlink:href="#OpenSans-30"/>
      </g>
     </g>
    </g>
    <g id="ytick_8">
     <g id="line2d_41">
      <path clip-path="url(#p9dd24fac38)" d="M 64.8 115.02 
L 631.8 115.02 
" style="fill:none;stroke:#000000;stroke-linecap:square;stroke-width:0.2;"/>
     </g>
     <g id="line2d_42">
      <g>
       <use style="stroke:#000000;stroke-width:0.8;" x="64.8" xlink:href="#mbdc0a5d07f" y="115.02"/>
      </g>
     </g>
     <g id="text_22">
      <!-- $\mathregular{10^{1}}$ -->
      <g transform="translate(35.68 120.338906)scale(0.14 -0.14)">
       <use transform="translate(0 0.565625)" xlink:href="#OpenSans-31"/>
       <use transform="translate(57.177734 0.565625)" xlink:href="#OpenSans-30"/>
       <use transform="translate(115.291992 38.026563)scale(0.7)" xlink:href="#OpenSans-31"/>
      </g>
     </g>
    </g>
    <g id="ytick_9">
     <g id="line2d_43">
      <path clip-path="url(#p9dd24fac38)" d="M 64.8 45.36 
L 631.8 45.36 
" style="fill:none;stroke:#000000;stroke-linecap:square;stroke-width:0.2;"/>
     </g>
     <g id="line2d_44">
      <g>
       <use style="stroke:#000000;stroke-width:0.8;" x="64.8" xlink:href="#mbdc0a5d07f" y="45.36"/>
      </g>
     </g>
     <g id="text_23">
      <!-- $\mathregular{10^{2}}$ -->
      <g transform="translate(35.68 50.678906)scale(0.14 -0.14)">
       <use transform="translate(0 0.854688)" xlink:href="#OpenSans-31"/>
       <use transform="translate(57.177734 0.854688)" xlink:href="#OpenSans-30"/>
       <use transform="translate(115.291992 38.315625)scale(0.7)" xlink:href="#OpenSans-32"/>
      </g>
     </g>
    </g>
    <g id="text_24">
     <!-- SSH PSD [$\mathregular{m^2}$/(cy/km)] -->
     <defs>
      <path d="M 50.09375 19 
Q 50.09375 9.578125 43.25 4.296875 
Q 36.421875 -0.984375 24.703125 -0.984375 
Q 12.015625 -0.984375 5.171875 2.296875 
L 5.171875 10.296875 
Q 9.578125 8.453125 14.75 7.375 
Q 19.921875 6.296875 25 6.296875 
Q 33.296875 6.296875 37.5 9.4375 
Q 41.703125 12.59375 41.703125 18.21875 
Q 41.703125 21.921875 40.203125 24.28125 
Q 38.71875 26.65625 35.21875 28.65625 
Q 31.734375 30.671875 24.609375 33.203125 
Q 14.65625 36.765625 10.375 41.640625 
Q 6.109375 46.53125 6.109375 54.390625 
Q 6.109375 62.640625 12.296875 67.515625 
Q 18.5 72.40625 28.71875 72.40625 
Q 39.359375 72.40625 48.296875 68.5 
L 45.703125 61.28125 
Q 36.859375 64.984375 28.515625 64.984375 
Q 21.921875 64.984375 18.203125 62.15625 
Q 14.5 59.328125 14.5 54.296875 
Q 14.5 50.59375 15.859375 48.21875 
Q 17.234375 45.84375 20.484375 43.859375 
Q 23.734375 41.890625 30.421875 39.5 
Q 41.65625 35.5 45.875 30.90625 
Q 50.09375 26.3125 50.09375 19 
z
" id="OpenSans-53"/>
      <path d="M 64.015625 0 
L 55.71875 0 
L 55.71875 33.59375 
L 18.109375 33.59375 
L 18.109375 0 
L 9.8125 0 
L 9.8125 71.390625 
L 18.109375 71.390625 
L 18.109375 41.015625 
L 55.71875 41.015625 
L 55.71875 71.390625 
L 64.015625 71.390625 
z
" id="OpenSans-48"/>
      <path d="M 55.078125 50.59375 
Q 55.078125 39.75 47.671875 33.90625 
Q 40.28125 28.078125 26.515625 28.078125 
L 18.109375 28.078125 
L 18.109375 0 
L 9.8125 0 
L 9.8125 71.390625 
L 28.328125 71.390625 
Q 55.078125 71.390625 55.078125 50.59375 
z
M 18.109375 35.203125 
L 25.59375 35.203125 
Q 36.625 35.203125 41.546875 38.765625 
Q 46.484375 42.328125 46.484375 50.203125 
Q 46.484375 57.28125 41.84375 60.734375 
Q 37.203125 64.203125 27.390625 64.203125 
L 18.109375 64.203125 
z
" id="OpenSans-50"/>
      <path d="M 66.796875 36.375 
Q 66.796875 18.703125 57.203125 9.34375 
Q 47.609375 0 29.59375 0 
L 9.8125 0 
L 9.8125 71.390625 
L 31.6875 71.390625 
Q 48.34375 71.390625 57.5625 62.15625 
Q 66.796875 52.9375 66.796875 36.375 
z
M 58.015625 36.078125 
Q 58.015625 50.046875 51 57.125 
Q 44 64.203125 30.171875 64.203125 
L 18.109375 64.203125 
L 18.109375 7.171875 
L 28.21875 7.171875 
Q 43.0625 7.171875 50.53125 14.46875 
Q 58.015625 21.78125 58.015625 36.078125 
z
" id="OpenSans-44"/>
      <path d="M 35.6875 71.390625 
L 9.078125 0 
L 0.984375 0 
L 27.59375 71.390625 
z
" id="OpenSans-2f"/>
      <path d="M 4 27.390625 
Q 4 40.328125 7.78125 51.609375 
Q 11.578125 62.890625 18.703125 71.390625 
L 26.609375 71.390625 
Q 19.578125 61.96875 16.03125 50.6875 
Q 12.5 39.40625 12.5 27.484375 
Q 12.5 15.765625 16.109375 4.578125 
Q 19.734375 -6.59375 26.515625 -15.828125 
L 18.703125 -15.828125 
Q 11.53125 -7.515625 7.765625 3.5625 
Q 4 14.65625 4 27.390625 
z
" id="OpenSans-28"/>
      <path d="M 29.984375 -0.984375 
Q 18.359375 -0.984375 11.984375 6.171875 
Q 5.609375 13.328125 5.609375 26.421875 
Q 5.609375 39.84375 12.078125 47.171875 
Q 18.5625 54.5 30.515625 54.5 
Q 34.375 54.5 38.234375 53.65625 
Q 42.09375 52.828125 44.28125 51.703125 
L 41.796875 44.828125 
Q 39.109375 45.90625 35.9375 46.609375 
Q 32.765625 47.3125 30.328125 47.3125 
Q 14.015625 47.3125 14.015625 26.515625 
Q 14.015625 16.65625 17.984375 11.375 
Q 21.96875 6.109375 29.78125 6.109375 
Q 36.46875 6.109375 43.5 8.984375 
L 43.5 1.8125 
Q 38.140625 -0.984375 29.984375 -0.984375 
z
" id="OpenSans-63"/>
      <path d="M 0.09375 53.515625 
L 8.796875 53.515625 
L 20.515625 23 
Q 24.359375 12.546875 25.296875 7.90625 
L 25.6875 7.90625 
Q 26.3125 10.40625 28.34375 16.4375 
Q 30.375 22.46875 41.609375 53.515625 
L 50.296875 53.515625 
L 27.296875 -7.421875 
Q 23.875 -16.453125 19.3125 -20.234375 
Q 14.75 -24.03125 8.109375 -24.03125 
Q 4.390625 -24.03125 0.78125 -23.1875 
L 0.78125 -16.703125 
Q 3.46875 -17.28125 6.78125 -17.28125 
Q 15.140625 -17.28125 18.703125 -7.90625 
L 21.6875 -0.296875 
z
" id="OpenSans-79"/>
      <path d="M 25.59375 27.390625 
Q 25.59375 14.546875 21.796875 3.453125 
Q 18.015625 -7.625 10.890625 -15.828125 
L 3.078125 -15.828125 
Q 9.859375 -6.640625 13.46875 4.5625 
Q 17.09375 15.765625 17.09375 27.484375 
Q 17.09375 39.40625 13.546875 50.6875 
Q 10.015625 61.96875 2.984375 71.390625 
L 10.890625 71.390625 
Q 18.0625 62.84375 21.828125 51.53125 
Q 25.59375 40.234375 25.59375 27.390625 
z
" id="OpenSans-29"/>
     </defs>
     <g transform="translate(22.44 394.21)rotate(-90)scale(0.14 -0.14)">
      <use transform="translate(0 0.854688)" xlink:href="#OpenSans-53"/>
      <use transform="translate(54.882812 0.854688)" xlink:href="#OpenSans-53"/>
      <use transform="translate(109.765625 0.854688)" xlink:href="#OpenSans-48"/>
      <use transform="translate(183.544922 0.854688)" xlink:href="#OpenSans-20"/>
      <use transform="translate(209.521484 0.854688)" xlink:href="#OpenSans-50"/>
      <use transform="translate(269.726562 0.854688)" xlink:href="#OpenSans-53"/>
      <use transform="translate(324.609375 0.854688)" xlink:href="#OpenSans-44"/>
      <use transform="translate(397.509766 0.854688)" xlink:href="#OpenSans-20"/>
      <use transform="translate(423.486328 0.854688)" xlink:href="#OpenSans-5b"/>
      <use transform="translate(456.396484 0.854688)" xlink:href="#OpenSans-6d"/>
      <use transform="translate(550.350586 38.315625)scale(0.7)" xlink:href="#OpenSans-32"/>
      <use transform="translate(593.050781 0.854688)" xlink:href="#OpenSans-2f"/>
      <use transform="translate(629.769531 0.854688)" xlink:href="#OpenSans-28"/>
      <use transform="translate(659.359375 0.854688)" xlink:href="#OpenSans-63"/>
      <use transform="translate(706.966797 0.854688)" xlink:href="#OpenSans-79"/>
      <use transform="translate(757.357422 0.854688)" xlink:href="#OpenSans-2f"/>
      <use transform="translate(794.076172 0.854688)" xlink:href="#OpenSans-6b"/>
      <use transform="translate(846.566406 0.854688)" xlink:href="#OpenSans-6d"/>
      <use transform="translate(939.583984 0.854688)" xlink:href="#OpenSans-29"/>
      <use transform="translate(969.173828 0.854688)" xlink:href="#OpenSans-5d"/>
     </g>
    </g>
   </g>
   <g id="line2d_45">
    <path clip-path="url(#p9dd24fac38)" d="M 237.612641 364.832041 
L 264.04034 378.333544 
L 285.633343 389.365075 
L 303.889967 398.692102 
L 319.704574 406.77154 
L 333.654045 413.898109 
L 346.132273 420.273043 
L 357.420203 426.039872 
L 367.725276 431.304574 
L 377.205024 436.147631 
L 385.9819 440.631601 
L 394.152976 444.806077 
L 401.796507 448.711039 
L 408.9765 452.379187 
L 415.745978 455.837608 
L 422.149355 459.108995 
L 428.224206 462.212542 
L 434.002602 465.164635 
L 439.512136 467.979371 
L 444.77672 470.668965 
L 449.817209 473.244073 
L 454.651906 475.714045 
L 459.296957 478.08713 
L 463.766681 480.370642 
L 468.073833 482.5711 
L 472.229825 484.694332 
L 476.244909 486.745576 
L 480.128326 488.729554 
L 483.88844 490.650538 
L 487.532839 492.512405 
L 491.068433 494.318686 
L 494.501532 496.072603 
L 497.837911 497.777107 
L 501.082871 499.434907 
L 504.241288 501.048494 
L 507.317659 502.620164 
L 510.316139 504.152041 
L 513.240575 505.64609 
L 516.094535 507.104134 
L 518.881337 508.527868 
L 521.604069 509.91887 
L 524.265611 511.27861 
L 526.868653 512.608464 
L 529.41571 513.909716 
L 531.909142 515.183572 
L 534.351159 516.431161 
L 536.743839 517.653544 
L 539.089136 518.85172 
L 541.38889 520.026629 
L 543.644837 521.179157 
L 545.858614 522.310141 
L 548.031769 523.420373 
L 550.165766 524.510599 
L 552.261991 525.581528 
L 554.321758 526.633831 
L 556.346314 527.668145 
L 558.336842 528.685075 
L 560.294467 529.685195 
L 562.220259 530.669053 
L 564.115238 531.637168 
L 565.980373 532.590037 
L 567.81659 533.528132 
L 569.624772 534.451904 
L 571.405762 535.361784 
L 573.160366 536.258185 
L 574.889355 537.141498 
L 576.593465 538.012102 
L 578.273403 538.870356 
L 579.929844 539.716606 
L 581.563437 540.551184 
L 583.174804 541.374406 
L 584.764541 542.186578 
L 586.333221 542.987993 
L 587.881395 543.778931 
L 589.409592 544.559663 
L 590.918321 545.330449 
" style="fill:none;stroke:#000000;stroke-dasharray:7.4,3.2;stroke-dashoffset:0;stroke-width:2;"/>
   </g>
   <g id="line2d_46">
    <path clip-path="url(#p9dd24fac38)" d="M 237.612641 83.725452 
L 264.04034 117.479209 
L 285.633343 145.058037 
L 303.889967 168.375604 
L 319.704574 188.574199 
L 333.654045 206.390623 
L 346.132273 222.327957 
L 357.420203 236.745029 
L 367.725276 249.906785 
L 377.205024 262.014426 
L 385.9819 273.224352 
L 394.152976 283.660542 
L 401.796507 293.422947 
L 408.9765 302.593316 
L 415.745978 311.23937 
L 422.149355 319.417836 
L 428.224206 327.176704 
L 434.002602 334.556937 
L 439.512136 341.593776 
L 444.77672 348.317762 
L 449.817209 354.755532 
L 454.651906 360.930462 
L 459.296957 366.863174 
L 463.766681 372.571956 
L 468.073833 378.073099 
L 472.229825 383.381179 
L 476.244909 388.50929 
L 480.128326 393.469235 
L 483.88844 398.271694 
L 487.532839 402.926362 
L 491.068433 407.442064 
L 494.501532 411.826857 
L 497.837911 416.088118 
L 501.082871 420.232617 
L 504.241288 424.266583 
L 507.317659 428.195759 
L 510.316139 432.025452 
L 513.240575 435.760574 
L 516.094535 439.405685 
L 518.881337 442.96502 
L 521.604069 446.442524 
L 524.265611 449.841875 
L 526.868653 453.16651 
L 529.41571 456.419641 
L 531.909142 459.60428 
L 534.351159 462.723251 
L 536.743839 465.779209 
L 539.089136 468.774649 
L 541.38889 471.711921 
L 543.644837 474.593242 
L 545.858614 477.420703 
L 548.031769 480.196282 
L 550.165766 482.921847 
L 552.261991 485.599169 
L 554.321758 488.229927 
L 556.346314 490.815712 
L 558.336842 493.358037 
L 560.294467 495.858338 
L 562.220259 498.317982 
L 564.115238 500.73827 
L 565.980373 503.120442 
L 567.81659 505.465679 
L 569.624772 507.77511 
L 571.405762 510.049811 
L 573.160366 512.290811 
L 574.889355 514.499095 
L 576.593465 516.675604 
L 578.273403 518.82124 
L 579.929844 520.936865 
L 581.563437 523.023309 
L 583.174804 525.081365 
L 584.764541 527.111795 
L 586.333221 529.115331 
L 587.881395 531.092676 
L 589.409592 533.044507 
L 590.918321 534.971473 
" style="fill:none;stroke:#999999;stroke-dasharray:7.4,3.2;stroke-dashoffset:0;stroke-width:2;"/>
   </g>
   <g id="patch_3">
    <path d="M 64.8 602.64 
L 64.8 45.36 
" style="fill:none;stroke:#000000;stroke-linecap:square;stroke-linejoin:miter;stroke-width:0.8;"/>
   </g>
   <g id="patch_4">
    <path d="M 631.8 602.64 
L 631.8 45.36 
" style="fill:none;stroke:#000000;stroke-linecap:square;stroke-linejoin:miter;stroke-width:0.8;"/>
   </g>
   <g id="patch_5">
    <path d="M 64.8 602.64 
L 631.8 602.64 
" style="fill:none;stroke:#000000;stroke-linecap:square;stroke-linejoin:miter;stroke-width:0.8;"/>
   </g>
   <g id="patch_6">
    <path d="M 64.8 45.36 
L 631.8 45.36 
" style="fill:none;stroke:#000000;stroke-linecap:square;stroke-linejoin:miter;stroke-width:0.8;"/>
   </g>
   <g id="line2d_47">
    <path clip-path="url(#p9dd24fac38)" d="M 73.428775 92.661837 
L 155.520708 90.215603 
L 203.54141 113.045416 
L 237.612641 136.850062 
L 264.04034 166.145367 
L 285.633343 194.003475 
L 303.889967 213.75484 
L 319.704574 230.238525 
L 333.654045 244.1009 
L 346.132273 260.77977 
L 357.420203 268.557325 
L 367.725276 276.071308 
L 377.205024 292.838135 
L 385.9819 303.917693 
L 408.9765 331.428954 
L 415.745978 338.918901 
L 422.149355 346.341655 
L 428.224206 355.13654 
L 434.002602 365.880599 
L 439.512136 362.255546 
L 444.77672 359.439143 
L 449.817209 370.322954 
L 454.651906 382.381319 
L 459.296957 386.153089 
L 463.766681 387.023169 
L 468.073833 403.55857 
L 472.229825 404.364733 
L 476.244909 398.439947 
L 480.128326 405.447891 
L 483.88844 407.210644 
L 487.532839 412.663932 
L 494.501532 424.989736 
L 497.837911 427.441636 
L 501.082871 437.120411 
L 504.241288 436.874604 
L 507.317659 432.059134 
L 510.316139 439.050707 
L 513.240575 445.518424 
L 516.094535 448.216925 
L 518.881337 452.838348 
L 521.604069 455.237199 
L 524.265611 458.03925 
L 526.868653 462.767247 
L 529.41571 458.77064 
L 531.909142 460.651064 
L 534.351159 465.002454 
L 536.743839 477.877835 
L 539.089136 472.058683 
L 541.38889 472.805324 
L 543.644837 472.638718 
L 545.858614 483.599709 
L 548.031769 487.193576 
L 550.165766 490.337518 
L 552.261991 481.168169 
L 554.321758 492.041493 
L 556.346314 492.614811 
L 558.336842 482.950238 
L 560.294467 501.512604 
L 562.220259 502.142075 
L 564.115238 503.311461 
L 567.81659 496.819273 
L 569.624772 510.294905 
L 571.405762 509.522773 
L 573.160366 506.018203 
L 574.889355 506.942866 
L 576.593465 507.164096 
L 578.273403 510.406958 
L 579.929844 520.211198 
L 581.563437 518.221357 
L 583.174804 517.425631 
L 584.764541 517.083437 
L 586.333221 516.156728 
L 587.881395 516.618084 
L 589.409592 518.974793 
L 590.918321 521.680943 
L 590.918321 521.680943 
" style="fill:none;stroke:#008ab8;stroke-linecap:square;stroke-width:5;"/>
   </g>
   <g id="legend_1">
    <g id="patch_7">
     <path d="M 385.97375 142.56875 
L 624 142.56875 
Q 626.8 142.56875 626.8 139.76875 
L 626.8 57.16 
Q 626.8 54.36 624 54.36 
L 385.97375 54.36 
Q 383.17375 54.36 383.17375 57.16 
L 383.17375 139.76875 
Q 383.17375 142.56875 385.97375 142.56875 
z
" style="fill:#4c4c4c;opacity:0.5;stroke:#4c4c4c;stroke-linejoin:miter;"/>
    </g>
    <g id="patch_8">
     <path d="M 383.97375 140.56875 
L 622 140.56875 
Q 624.8 140.56875 624.8 137.76875 
L 624.8 55.16 
Q 624.8 52.36 622 52.36 
L 383.97375 52.36 
Q 381.17375 52.36 381.17375 55.16 
L 381.17375 137.76875 
Q 381.17375 140.56875 383.97375 140.56875 
z
" style="fill:#ffffff;stroke:#cccccc;stroke-linejoin:miter;"/>
    </g>
    <g id="line2d_48">
     <path d="M 386.77375 63.697813 
L 414.77375 63.697813 
" style="fill:none;stroke:#ffed00;stroke-linecap:square;stroke-width:4;"/>
    </g>
    <g id="line2d_49"/>
    <g id="text_25">
     <!-- SARAL-Altika ("sla_unfiltered") -->
     <defs>
      <path d="M 54.6875 0 
L 45.796875 22.703125 
L 17.1875 22.703125 
L 8.40625 0 
L 0 0 
L 28.21875 71.6875 
L 35.203125 71.6875 
L 63.28125 0 
z
M 43.21875 30.171875 
L 34.90625 52.296875 
Q 33.296875 56.5 31.59375 62.59375 
Q 30.515625 57.90625 28.515625 52.296875 
L 20.125 30.171875 
z
" id="OpenSans-41"/>
      <path d="M 18.109375 29.6875 
L 18.109375 0 
L 9.8125 0 
L 9.8125 71.390625 
L 29.390625 71.390625 
Q 42.53125 71.390625 48.796875 66.359375 
Q 55.078125 61.328125 55.078125 51.21875 
Q 55.078125 37.0625 40.71875 32.078125 
L 60.109375 0 
L 50.296875 0 
L 33.015625 29.6875 
z
M 18.109375 36.8125 
L 29.5 36.8125 
Q 38.28125 36.8125 42.375 40.296875 
Q 46.484375 43.796875 46.484375 50.78125 
Q 46.484375 57.859375 42.3125 60.984375 
Q 38.140625 64.109375 28.90625 64.109375 
L 18.109375 64.109375 
z
" id="OpenSans-52"/>
      <path d="M 9.8125 0 
L 9.8125 71.390625 
L 18.109375 71.390625 
L 18.109375 7.515625 
L 49.609375 7.515625 
L 49.609375 0 
z
" id="OpenSans-4c"/>
      <path d="M 16.703125 0 
L 8.59375 0 
L 8.59375 53.515625 
L 16.703125 53.515625 
z
M 7.90625 68.015625 
Q 7.90625 70.796875 9.265625 72.09375 
Q 10.640625 73.390625 12.703125 73.390625 
Q 14.65625 73.390625 16.0625 72.0625 
Q 17.484375 70.75 17.484375 68.015625 
Q 17.484375 65.28125 16.0625 63.9375 
Q 14.65625 62.59375 12.703125 62.59375 
Q 10.640625 62.59375 9.265625 63.9375 
Q 7.90625 65.28125 7.90625 68.015625 
z
" id="OpenSans-69"/>
      <path d="M 15.578125 71.390625 
L 13.625 45.609375 
L 8.5 45.609375 
L 6.5 71.390625 
z
M 33.59375 71.390625 
L 31.59375 45.609375 
L 26.515625 45.609375 
L 24.515625 71.390625 
z
" id="OpenSans-22"/>
      <path d="M 43.109375 14.59375 
Q 43.109375 7.125 37.546875 3.0625 
Q 31.984375 -0.984375 21.921875 -0.984375 
Q 11.28125 -0.984375 5.328125 2.390625 
L 5.328125 9.90625 
Q 9.1875 7.953125 13.59375 6.828125 
Q 18.015625 5.71875 22.125 5.71875 
Q 28.46875 5.71875 31.875 7.734375 
Q 35.296875 9.765625 35.296875 13.921875 
Q 35.296875 17.046875 32.59375 19.265625 
Q 29.890625 21.484375 22.015625 24.515625 
Q 14.546875 27.296875 11.390625 29.375 
Q 8.25 31.453125 6.703125 34.078125 
Q 5.171875 36.71875 5.171875 40.375 
Q 5.171875 46.921875 10.5 50.703125 
Q 15.828125 54.5 25.09375 54.5 
Q 33.734375 54.5 42 50.984375 
L 39.109375 44.390625 
Q 31.0625 47.703125 24.515625 47.703125 
Q 18.75 47.703125 15.8125 45.890625 
Q 12.890625 44.09375 12.890625 40.921875 
Q 12.890625 38.765625 13.984375 37.25 
Q 15.09375 35.75 17.53125 34.375 
Q 19.96875 33.015625 26.90625 30.421875 
Q 36.421875 26.953125 39.765625 23.4375 
Q 43.109375 19.921875 43.109375 14.59375 
z
" id="OpenSans-73"/>
      <path d="M 45.015625 -15.375 
L -0.203125 -15.375 
L -0.203125 -8.984375 
L 45.015625 -8.984375 
z
" id="OpenSans-5f"/>
      <path d="M 16.21875 53.515625 
L 16.21875 18.796875 
Q 16.21875 12.25 19.1875 9.03125 
Q 22.171875 5.8125 28.515625 5.8125 
Q 36.921875 5.8125 40.796875 10.390625 
Q 44.671875 14.984375 44.671875 25.390625 
L 44.671875 53.515625 
L 52.78125 53.515625 
L 52.78125 0 
L 46.09375 0 
L 44.921875 7.171875 
L 44.484375 7.171875 
Q 42 3.21875 37.578125 1.109375 
Q 33.15625 -0.984375 27.484375 -0.984375 
Q 17.71875 -0.984375 12.859375 3.65625 
Q 8.015625 8.296875 8.015625 18.5 
L 8.015625 53.515625 
z
" id="OpenSans-75"/>
      <path d="M 32.71875 47.21875 
L 19.09375 47.21875 
L 19.09375 0 
L 10.984375 0 
L 10.984375 47.21875 
L 1.421875 47.21875 
L 1.421875 50.875 
L 10.984375 53.8125 
L 10.984375 56.78125 
Q 10.984375 76.515625 28.21875 76.515625 
Q 32.46875 76.515625 38.1875 74.8125 
L 36.078125 68.3125 
Q 31.390625 69.828125 28.078125 69.828125 
Q 23.484375 69.828125 21.28125 66.765625 
Q 19.09375 63.71875 19.09375 56.984375 
L 19.09375 53.515625 
L 32.71875 53.515625 
z
" id="OpenSans-66"/>
      <path d="M 33.015625 54.5 
Q 36.578125 54.5 39.40625 53.90625 
L 38.28125 46.390625 
Q 34.96875 47.125 32.421875 47.125 
Q 25.921875 47.125 21.3125 41.84375 
Q 16.703125 36.578125 16.703125 28.71875 
L 16.703125 0 
L 8.59375 0 
L 8.59375 53.515625 
L 15.28125 53.515625 
L 16.21875 43.609375 
L 16.609375 43.609375 
Q 19.578125 48.828125 23.78125 51.65625 
Q 27.984375 54.5 33.015625 54.5 
z
" id="OpenSans-72"/>
      <path d="M 45.015625 7.171875 
L 44.578125 7.171875 
Q 38.96875 -0.984375 27.78125 -0.984375 
Q 17.28125 -0.984375 11.4375 6.1875 
Q 5.609375 13.375 5.609375 26.609375 
Q 5.609375 39.84375 11.46875 47.171875 
Q 17.328125 54.5 27.78125 54.5 
Q 38.671875 54.5 44.484375 46.578125 
L 45.125 46.578125 
L 44.78125 50.4375 
L 44.578125 54.203125 
L 44.578125 75.984375 
L 52.6875 75.984375 
L 52.6875 0 
L 46.09375 0 
z
M 28.8125 5.8125 
Q 37.109375 5.8125 40.84375 10.328125 
Q 44.578125 14.84375 44.578125 24.90625 
L 44.578125 26.609375 
Q 44.578125 37.984375 40.796875 42.84375 
Q 37.015625 47.703125 28.71875 47.703125 
Q 21.578125 47.703125 17.796875 42.15625 
Q 14.015625 36.625 14.015625 26.515625 
Q 14.015625 16.265625 17.765625 11.03125 
Q 21.53125 5.8125 28.8125 5.8125 
z
" id="OpenSans-64"/>
     </defs>
     <g transform="translate(425.97375 68.597813)scale(0.14 -0.14)">
      <use xlink:href="#OpenSans-53"/>
      <use x="54.882812" xlink:href="#OpenSans-41"/>
      <use x="118.164062" xlink:href="#OpenSans-52"/>
      <use x="179.980469" xlink:href="#OpenSans-41"/>
      <use x="243.261719" xlink:href="#OpenSans-4c"/>
      <use x="295.166016" xlink:href="#OpenSans-2d"/>
      <use x="327.34375" xlink:href="#OpenSans-41"/>
      <use x="390.625" xlink:href="#OpenSans-6c"/>
      <use x="415.917969" xlink:href="#OpenSans-74"/>
      <use x="451.220703" xlink:href="#OpenSans-69"/>
      <use x="476.513672" xlink:href="#OpenSans-6b"/>
      <use x="529.003906" xlink:href="#OpenSans-61"/>
      <use x="584.619141" xlink:href="#OpenSans-20"/>
      <use x="610.595703" xlink:href="#OpenSans-28"/>
      <use x="640.185547" xlink:href="#OpenSans-22"/>
      <use x="680.226562" xlink:href="#OpenSans-73"/>
      <use x="727.931641" xlink:href="#OpenSans-6c"/>
      <use x="753.224609" xlink:href="#OpenSans-61"/>
      <use x="808.839844" xlink:href="#OpenSans-5f"/>
      <use x="853.664062" xlink:href="#OpenSans-75"/>
      <use x="915.041016" xlink:href="#OpenSans-6e"/>
      <use x="976.417969" xlink:href="#OpenSans-66"/>
      <use x="1010.304688" xlink:href="#OpenSans-69"/>
      <use x="1035.597656" xlink:href="#OpenSans-6c"/>
      <use x="1060.890625" xlink:href="#OpenSans-74"/>
      <use x="1096.193359" xlink:href="#OpenSans-65"/>
      <use x="1152.296875" xlink:href="#OpenSans-72"/>
      <use x="1193.085938" xlink:href="#OpenSans-65"/>
      <use x="1249.189453" xlink:href="#OpenSans-64"/>
      <use x="1310.46875" xlink:href="#OpenSans-22"/>
      <use x="1350.556641" xlink:href="#OpenSans-29"/>
     </g>
    </g>
    <g id="line2d_50">
     <path d="M 386.77375 84.7 
L 414.77375 84.7 
" style="fill:none;stroke:#008ab8;stroke-linecap:square;stroke-width:5;"/>
    </g>
    <g id="line2d_51"/>
    <g id="text_26">
     <!-- NEMO-eNATL60 ("sossheig") -->
     <defs>
      <path d="M 65.578125 0 
L 56.109375 0 
L 17.09375 59.90625 
L 16.703125 59.90625 
Q 17.484375 49.359375 17.484375 40.578125 
L 17.484375 0 
L 9.8125 0 
L 9.8125 71.390625 
L 19.1875 71.390625 
L 58.109375 11.71875 
L 58.5 11.71875 
Q 58.40625 13.03125 58.0625 20.1875 
Q 57.71875 27.34375 57.8125 30.421875 
L 57.8125 71.390625 
L 65.578125 71.390625 
z
" id="OpenSans-4e"/>
      <path d="M 49.609375 0 
L 9.8125 0 
L 9.8125 71.390625 
L 49.609375 71.390625 
L 49.609375 64.015625 
L 18.109375 64.015625 
L 18.109375 41.015625 
L 47.703125 41.015625 
L 47.703125 33.6875 
L 18.109375 33.6875 
L 18.109375 7.421875 
L 49.609375 7.421875 
z
" id="OpenSans-45"/>
      <path d="M 41.40625 0 
L 17.1875 63.28125 
L 16.796875 63.28125 
Q 17.484375 55.765625 17.484375 45.40625 
L 17.484375 0 
L 9.8125 0 
L 9.8125 71.390625 
L 22.3125 71.390625 
L 44.921875 12.5 
L 45.3125 12.5 
L 68.109375 71.390625 
L 80.515625 71.390625 
L 80.515625 0 
L 72.21875 0 
L 72.21875 46 
Q 72.21875 53.90625 72.90625 63.1875 
L 72.515625 63.1875 
L 48.09375 0 
z
" id="OpenSans-4d"/>
      <path d="M 71.78125 35.796875 
Q 71.78125 18.65625 63.109375 8.828125 
Q 54.4375 -0.984375 39.015625 -0.984375 
Q 23.25 -0.984375 14.671875 8.65625 
Q 6.109375 18.3125 6.109375 35.890625 
Q 6.109375 53.328125 14.703125 62.921875 
Q 23.296875 72.515625 39.109375 72.515625 
Q 54.5 72.515625 63.140625 62.75 
Q 71.78125 52.984375 71.78125 35.796875 
z
M 14.890625 35.796875 
Q 14.890625 21.296875 21.0625 13.796875 
Q 27.25 6.296875 39.015625 6.296875 
Q 50.875 6.296875 56.921875 13.765625 
Q 62.984375 21.234375 62.984375 35.796875 
Q 62.984375 50.203125 56.953125 57.640625 
Q 50.921875 65.09375 39.109375 65.09375 
Q 27.25 65.09375 21.0625 57.59375 
Q 14.890625 50.09375 14.890625 35.796875 
z
" id="OpenSans-4f"/>
      <path d="M 31.78125 0 
L 23.484375 0 
L 23.484375 64.015625 
L 0.875 64.015625 
L 0.875 71.390625 
L 54.390625 71.390625 
L 54.390625 64.015625 
L 31.78125 64.015625 
z
" id="OpenSans-54"/>
      <path d="M 54.78125 26.8125 
Q 54.78125 13.71875 48.1875 6.359375 
Q 41.609375 -0.984375 29.984375 -0.984375 
Q 22.796875 -0.984375 17.234375 2.390625 
Q 11.671875 5.765625 8.640625 12.0625 
Q 5.609375 18.359375 5.609375 26.8125 
Q 5.609375 39.890625 12.15625 47.1875 
Q 18.703125 54.5 30.328125 54.5 
Q 41.546875 54.5 48.15625 47.015625 
Q 54.78125 39.546875 54.78125 26.8125 
z
M 14.015625 26.8125 
Q 14.015625 16.546875 18.109375 11.171875 
Q 22.21875 5.8125 30.171875 5.8125 
Q 38.140625 5.8125 42.265625 11.15625 
Q 46.390625 16.5 46.390625 26.8125 
Q 46.390625 37.015625 42.265625 42.3125 
Q 38.140625 47.609375 30.078125 47.609375 
Q 22.125 47.609375 18.0625 42.375 
Q 14.015625 37.15625 14.015625 26.8125 
z
" id="OpenSans-6f"/>
     </defs>
     <g transform="translate(425.97375 89.6)scale(0.14 -0.14)">
      <use xlink:href="#OpenSans-4e"/>
      <use x="75.390625" xlink:href="#OpenSans-45"/>
      <use x="131.005859" xlink:href="#OpenSans-4d"/>
      <use x="221.289062" xlink:href="#OpenSans-4f"/>
      <use x="299.169922" xlink:href="#OpenSans-2d"/>
      <use x="331.347656" xlink:href="#OpenSans-65"/>
      <use x="387.451172" xlink:href="#OpenSans-4e"/>
      <use x="462.841797" xlink:href="#OpenSans-41"/>
      <use x="526.013672" xlink:href="#OpenSans-54"/>
      <use x="581.335938" xlink:href="#OpenSans-4c"/>
      <use x="633.240234" xlink:href="#OpenSans-36"/>
      <use x="690.417969" xlink:href="#OpenSans-30"/>
      <use x="747.595703" xlink:href="#OpenSans-20"/>
      <use x="773.572266" xlink:href="#OpenSans-28"/>
      <use x="803.162109" xlink:href="#OpenSans-22"/>
      <use x="843.203125" xlink:href="#OpenSans-73"/>
      <use x="890.908203" xlink:href="#OpenSans-6f"/>
      <use x="951.308594" xlink:href="#OpenSans-73"/>
      <use x="999.013672" xlink:href="#OpenSans-73"/>
      <use x="1046.71875" xlink:href="#OpenSans-68"/>
      <use x="1108.095703" xlink:href="#OpenSans-65"/>
      <use x="1164.199219" xlink:href="#OpenSans-69"/>
      <use x="1189.492188" xlink:href="#OpenSans-67"/>
      <use x="1244.277344" xlink:href="#OpenSans-22"/>
      <use x="1284.365234" xlink:href="#OpenSans-29"/>
     </g>
    </g>
    <g id="line2d_52">
     <path d="M 386.77375 105.702188 
L 414.77375 105.702188 
" style="fill:none;stroke:#000000;stroke-dasharray:7.4,3.2;stroke-dashoffset:0;stroke-width:2;"/>
    </g>
    <g id="line2d_53"/>
    <g id="text_27">
     <!-- k$^\mathregular{-2}$ -->
     <g transform="translate(425.97375 110.602188)scale(0.14 -0.14)">
      <use transform="translate(0 0.034375)" xlink:href="#OpenSans-6b"/>
      <use transform="translate(53.447266 38.315625)scale(0.7)" xlink:href="#OpenSans-2212"/>
      <use transform="translate(93.47168 38.315625)scale(0.7)" xlink:href="#OpenSans-32"/>
     </g>
    </g>
    <g id="line2d_54">
     <path d="M 386.77375 126.704375 
L 414.77375 126.704375 
" style="fill:none;stroke:#999999;stroke-dasharray:7.4,3.2;stroke-dashoffset:0;stroke-width:2;"/>
    </g>
    <g id="line2d_55"/>
    <g id="text_28">
     <!-- k$^\mathregular{-5}$ -->
     <g transform="translate(425.97375 131.604375)scale(0.14 -0.14)">
      <use transform="translate(0 0.745313)" xlink:href="#OpenSans-6b"/>
      <use transform="translate(53.447266 39.026563)scale(0.7)" xlink:href="#OpenSans-2212"/>
      <use transform="translate(93.47168 39.026563)scale(0.7)" xlink:href="#OpenSans-35"/>
     </g>
    </g>
   </g>
   <g id="line2d_56">
    <path clip-path="url(#p9dd24fac38)" d="M 73.428775 134.869225 
L 155.520708 106.448179 
L 203.54141 114.780417 
L 237.612641 144.478012 
L 264.04034 168.185781 
L 285.633343 189.07697 
L 303.889967 217.263292 
L 319.704574 228.09901 
L 333.654045 235.522972 
L 346.132273 254.557178 
L 357.420203 278.552401 
L 367.725276 282.644755 
L 377.205024 281.471849 
L 385.9819 292.88802 
L 394.152976 304.855872 
L 401.796507 311.089226 
L 408.9765 310.76723 
L 415.745978 322.097592 
L 422.149355 315.035944 
L 428.224206 315.183735 
L 434.002602 325.917806 
L 439.512136 324.727427 
L 444.77672 317.307421 
L 449.817209 322.523076 
L 454.651906 326.628519 
L 459.296957 320.927733 
L 463.766681 326.015125 
L 468.073833 331.21114 
L 472.229825 331.057714 
L 476.244909 330.464212 
L 480.128326 333.385774 
L 483.88844 333.539992 
L 487.532839 335.714095 
L 491.068433 335.703336 
L 494.501532 334.913178 
L 497.837911 332.348881 
L 501.082871 335.13119 
L 504.241288 345.730035 
L 507.317659 341.097142 
L 510.316139 341.544393 
L 513.240575 353.849726 
L 516.094535 340.070151 
L 518.881337 339.847923 
L 521.604069 344.938706 
L 524.265611 345.312077 
L 526.868653 337.840834 
L 529.41571 340.484578 
L 531.909142 342.78385 
L 534.351159 347.172866 
L 536.743839 348.371399 
L 539.089136 342.136338 
L 541.38889 349.883555 
L 543.644837 349.041145 
L 545.858614 347.967822 
L 548.031769 353.404845 
L 550.165766 344.103778 
L 552.261991 351.52473 
L 554.321758 350.790436 
L 556.346314 347.149359 
L 558.336842 348.649674 
L 560.294467 348.85869 
L 562.220259 352.863835 
L 564.115238 345.758078 
L 565.980373 349.627175 
L 567.81659 349.001596 
L 569.624772 357.298531 
L 571.405762 351.729757 
L 573.160366 357.616271 
L 574.889355 348.06987 
L 576.593465 344.441308 
L 578.273403 349.941589 
L 579.929844 345.696752 
L 581.563437 355.264671 
L 583.174804 357.052766 
L 584.764541 345.732414 
L 586.333221 344.731272 
L 587.881395 343.096733 
L 589.409592 347.710589 
L 590.918321 340.652563 
L 590.918321 340.652563 
" style="fill:none;stroke:#ffed00;stroke-linecap:square;stroke-width:4;"/>
   </g>
  </g>
  <g id="axes_2">
   <g id="matplotlib.axis_3">
    <g id="xtick_14">
     <g id="line2d_57">
      <defs>
       <path d="M 0 0 
L 0 -3.5 
" id="mfb7499dbf9" style="stroke:#000000;stroke-width:0.8;"/>
      </defs>
      <g>
       <use style="stroke:#000000;stroke-width:0.8;" x="86.393003" xlink:href="#mfb7499dbf9" y="45.36"/>
      </g>
     </g>
     <g id="text_29">
      <!-- $\mathregular{10^{-3}}$ -->
      <g style="fill:#4c4c4c;" transform="translate(72.463003 34.995625)scale(0.14 -0.14)">
       <use transform="translate(0 0.854688)" xlink:href="#OpenSans-31"/>
       <use transform="translate(57.177734 0.854688)" xlink:href="#OpenSans-30"/>
       <use transform="translate(115.291992 38.315625)scale(0.7)" xlink:href="#OpenSans-2212"/>
       <use transform="translate(155.316406 38.315625)scale(0.7)" xlink:href="#OpenSans-33"/>
      </g>
     </g>
    </g>
    <g id="xtick_15">
     <g id="line2d_58">
      <g>
       <use style="stroke:#000000;stroke-width:0.8;" x="359.096501" xlink:href="#mfb7499dbf9" y="45.36"/>
      </g>
     </g>
     <g id="text_30">
      <!-- $\mathregular{10^{-2}}$ -->
      <g style="fill:#4c4c4c;" transform="translate(345.166501 34.995625)scale(0.14 -0.14)">
       <use transform="translate(0 0.854688)" xlink:href="#OpenSans-31"/>
       <use transform="translate(57.177734 0.854688)" xlink:href="#OpenSans-30"/>
       <use transform="translate(115.291992 38.315625)scale(0.7)" xlink:href="#OpenSans-2212"/>
       <use transform="translate(155.316406 38.315625)scale(0.7)" xlink:href="#OpenSans-32"/>
      </g>
     </g>
    </g>
    <g id="xtick_16">
     <g id="line2d_59">
      <g>
       <use style="stroke:#000000;stroke-width:0.8;" x="631.8" xlink:href="#mfb7499dbf9" y="45.36"/>
      </g>
     </g>
     <g id="text_31">
      <!-- $\mathregular{10^{-1}}$ -->
      <g style="fill:#4c4c4c;" transform="translate(617.87 34.995625)scale(0.14 -0.14)">
       <use transform="translate(0 0.565625)" xlink:href="#OpenSans-31"/>
       <use transform="translate(57.177734 0.565625)" xlink:href="#OpenSans-30"/>
       <use transform="translate(115.291992 38.026563)scale(0.7)" xlink:href="#OpenSans-2212"/>
       <use transform="translate(155.316406 38.026563)scale(0.7)" xlink:href="#OpenSans-31"/>
      </g>
     </g>
    </g>
    <g id="text_32">
     <!-- Wave-number [cy/km] -->
     <defs>
      <path d="M 33.5 54.390625 
Q 44.046875 54.390625 49.875 47.1875 
Q 55.71875 39.984375 55.71875 26.8125 
Q 55.71875 13.625 49.828125 6.3125 
Q 43.953125 -0.984375 33.5 -0.984375 
Q 28.265625 -0.984375 23.9375 0.9375 
Q 19.625 2.875 16.703125 6.890625 
L 16.109375 6.890625 
L 14.40625 0 
L 8.59375 0 
L 8.59375 75.984375 
L 16.703125 75.984375 
L 16.703125 57.515625 
Q 16.703125 51.3125 16.3125 46.390625 
L 16.703125 46.390625 
Q 22.359375 54.390625 33.5 54.390625 
z
M 32.328125 47.609375 
Q 24.03125 47.609375 20.359375 42.84375 
Q 16.703125 38.09375 16.703125 26.8125 
Q 16.703125 15.53125 20.453125 10.671875 
Q 24.21875 5.8125 32.515625 5.8125 
Q 39.984375 5.8125 43.640625 11.25 
Q 47.3125 16.703125 47.3125 26.90625 
Q 47.3125 37.359375 43.640625 42.484375 
Q 39.984375 47.609375 32.328125 47.609375 
z
" id="OpenSans-62"/>
     </defs>
     <g style="fill:#4c4c4c;" transform="translate(276.022812 20.357813)scale(0.14 -0.14)">
      <use xlink:href="#OpenSans-57"/>
      <use x="92.546875" xlink:href="#OpenSans-61"/>
      <use x="148.162109" xlink:href="#OpenSans-76"/>
      <use x="198.259766" xlink:href="#OpenSans-65"/>
      <use x="254.363281" xlink:href="#OpenSans-2d"/>
      <use x="286.541016" xlink:href="#OpenSans-6e"/>
      <use x="347.917969" xlink:href="#OpenSans-75"/>
      <use x="409.294922" xlink:href="#OpenSans-6d"/>
      <use x="502.3125" xlink:href="#OpenSans-62"/>
      <use x="563.591797" xlink:href="#OpenSans-65"/>
      <use x="619.695312" xlink:href="#OpenSans-72"/>
      <use x="660.515625" xlink:href="#OpenSans-20"/>
      <use x="686.492188" xlink:href="#OpenSans-5b"/>
      <use x="719.402344" xlink:href="#OpenSans-63"/>
      <use x="767.009766" xlink:href="#OpenSans-79"/>
      <use x="817.400391" xlink:href="#OpenSans-2f"/>
      <use x="854.119141" xlink:href="#OpenSans-6b"/>
      <use x="906.609375" xlink:href="#OpenSans-6d"/>
      <use x="999.626953" xlink:href="#OpenSans-5d"/>
     </g>
    </g>
   </g>
   <g id="patch_9">
    <path d="M 64.8 602.64 
L 64.8 45.36 
" style="fill:none;stroke:#000000;stroke-linecap:square;stroke-linejoin:miter;stroke-width:0.8;"/>
   </g>
   <g id="patch_10">
    <path d="M 631.8 602.64 
L 631.8 45.36 
" style="fill:none;stroke:#000000;stroke-linecap:square;stroke-linejoin:miter;stroke-width:0.8;"/>
   </g>
   <g id="patch_11">
    <path d="M 64.8 602.64 
L 631.8 602.64 
" style="fill:none;stroke:#000000;stroke-linecap:square;stroke-linejoin:miter;stroke-width:0.8;"/>
   </g>
   <g id="patch_12">
    <path d="M 64.8 45.36 
L 631.8 45.36 
" style="fill:none;stroke:#000000;stroke-linecap:square;stroke-linejoin:miter;stroke-width:0.8;"/>
   </g>
   <g id="text_33">
    <g id="patch_13">
     <path d="M 100.22 542.935788 
L 243.265 542.935788 
L 243.265 452.87685 
L 100.22 452.87685 
z
" style="fill:#e6e6e6;stroke:#000000;stroke-linejoin:miter;"/>
    </g>
    <!-- Box: GulfStream -->
    <defs>
     <path d="M 49.609375 19.09375 
Q 49.609375 14.5 47.828125 10.953125 
Q 46.046875 7.421875 42.75 4.984375 
Q 39.453125 2.546875 34.78125 1.265625 
Q 30.125 0 24.421875 0 
L 7.71875 0 
L 7.71875 63.8125 
L 25.984375 63.8125 
Q 47.3125 63.8125 47.3125 48.296875 
Q 47.3125 43.109375 44.84375 39.390625 
Q 42.390625 35.6875 36.8125 33.890625 
Q 39.40625 33.40625 41.71875 32.234375 
Q 44.046875 31.0625 45.796875 29.203125 
Q 47.5625 27.34375 48.578125 24.796875 
Q 49.609375 22.265625 49.609375 19.09375 
z
M 38.28125 47.125 
Q 38.28125 49.078125 37.6875 50.8125 
Q 37.109375 52.546875 35.640625 53.78125 
Q 34.1875 55.03125 31.6875 55.765625 
Q 29.203125 56.5 25.390625 56.5 
L 16.40625 56.5 
L 16.40625 36.53125 
L 25.09375 36.53125 
Q 28.078125 36.53125 30.484375 37.15625 
Q 32.90625 37.796875 34.640625 39.109375 
Q 36.375 40.4375 37.328125 42.40625 
Q 38.28125 44.390625 38.28125 47.125 
z
M 40.375 18.796875 
Q 40.375 21.234375 39.34375 23.1875 
Q 38.328125 25.140625 36.375 26.484375 
Q 34.421875 27.828125 31.609375 28.5625 
Q 28.8125 29.296875 25.296875 29.296875 
L 16.40625 29.296875 
L 16.40625 7.328125 
L 25.59375 7.328125 
Q 33.0625 7.328125 36.71875 10.109375 
Q 40.375 12.890625 40.375 18.796875 
z
" id="Consolas-42"/>
     <path d="M 50.484375 24.90625 
Q 50.484375 19.1875 48.875 14.421875 
Q 47.265625 9.671875 44.234375 6.265625 
Q 41.21875 2.875 36.859375 1 
Q 32.515625 -0.875 27 -0.875 
Q 21.734375 -0.875 17.546875 0.75 
Q 13.375 2.390625 10.46875 5.5625 
Q 7.5625 8.734375 6.03125 13.421875 
Q 4.5 18.109375 4.5 24.21875 
Q 4.5 29.9375 6.109375 34.640625 
Q 7.71875 39.359375 10.734375 42.75 
Q 13.765625 46.140625 18.109375 48.015625 
Q 22.46875 49.90625 27.984375 49.90625 
Q 33.25 49.90625 37.421875 48.265625 
Q 41.609375 46.625 44.5 43.46875 
Q 47.40625 40.328125 48.9375 35.640625 
Q 50.484375 30.953125 50.484375 24.90625 
z
M 41.796875 24.515625 
Q 41.796875 29.046875 40.796875 32.4375 
Q 39.796875 35.84375 37.9375 38.109375 
Q 36.078125 40.375 33.421875 41.515625 
Q 30.765625 42.671875 27.484375 42.671875 
Q 23.6875 42.671875 20.96875 41.1875 
Q 18.265625 39.703125 16.53125 37.203125 
Q 14.796875 34.71875 13.984375 31.421875 
Q 13.1875 28.125 13.1875 24.515625 
Q 13.1875 19.96875 14.1875 16.546875 
Q 15.1875 13.140625 17.03125 10.859375 
Q 18.890625 8.59375 21.53125 7.4375 
Q 24.171875 6.296875 27.484375 6.296875 
Q 31.296875 6.296875 34 7.78125 
Q 36.71875 9.28125 38.453125 11.765625 
Q 40.1875 14.265625 40.984375 17.546875 
Q 41.796875 20.84375 41.796875 24.515625 
z
" id="Consolas-6f"/>
     <path d="M 52 0 
L 40.71875 0 
L 27.484375 18.703125 
L 14.40625 0 
L 3.421875 0 
L 22.40625 24.609375 
L 4.296875 49.03125 
L 15.1875 49.03125 
L 28.078125 30.171875 
L 40.71875 49.03125 
L 51.21875 49.03125 
L 32.8125 24.421875 
z
" id="Consolas-78"/>
     <path d="M 27.484375 49.90625 
Q 29 49.90625 30.359375 49.296875 
Q 31.734375 48.6875 32.765625 47.65625 
Q 33.796875 46.625 34.40625 45.25 
Q 35.015625 43.890625 35.015625 42.390625 
Q 35.015625 40.828125 34.40625 39.484375 
Q 33.796875 38.140625 32.765625 37.109375 
Q 31.734375 36.078125 30.359375 35.484375 
Q 29 34.90625 27.484375 34.90625 
Q 25.921875 34.90625 24.578125 35.484375 
Q 23.25 36.078125 22.21875 37.109375 
Q 21.1875 38.140625 20.59375 39.484375 
Q 20.015625 40.828125 20.015625 42.390625 
Q 20.015625 43.890625 20.59375 45.25 
Q 21.1875 46.625 22.21875 47.65625 
Q 23.25 48.6875 24.578125 49.296875 
Q 25.921875 49.90625 27.484375 49.90625 
z
M 27.484375 14.109375 
Q 29 14.109375 30.359375 13.5 
Q 31.734375 12.890625 32.765625 11.859375 
Q 33.796875 10.84375 34.40625 9.46875 
Q 35.015625 8.109375 35.015625 6.59375 
Q 35.015625 5.03125 34.40625 3.6875 
Q 33.796875 2.34375 32.765625 1.3125 
Q 31.734375 0.296875 30.359375 -0.28125 
Q 29 -0.875 27.484375 -0.875 
Q 25.921875 -0.875 24.578125 -0.28125 
Q 23.25 0.296875 22.21875 1.3125 
Q 21.1875 2.34375 20.59375 3.6875 
Q 20.015625 5.03125 20.015625 6.59375 
Q 20.015625 8.109375 20.59375 9.46875 
Q 21.1875 10.84375 22.21875 11.859375 
Q 23.25 12.890625 24.578125 13.5 
Q 25.921875 14.109375 27.484375 14.109375 
z
" id="Consolas-3a"/>
     <path id="Consolas-20"/>
     <path d="M 49.125 52.875 
Q 45.5625 54.78125 41.796875 55.828125 
Q 38.03125 56.890625 33.59375 56.890625 
Q 28.515625 56.890625 24.5625 55.078125 
Q 20.609375 53.265625 17.890625 49.96875 
Q 15.1875 46.6875 13.75 42.046875 
Q 12.3125 37.40625 12.3125 31.78125 
Q 12.3125 25.921875 13.484375 21.28125 
Q 14.65625 16.65625 17.140625 13.421875 
Q 19.625 10.203125 23.5 8.484375 
Q 27.390625 6.78125 32.8125 6.78125 
Q 33.734375 6.78125 34.8125 6.875 
Q 35.890625 6.984375 36.953125 7.15625 
Q 38.03125 7.328125 39.03125 7.5625 
Q 40.046875 7.8125 40.828125 8.109375 
L 40.828125 28.421875 
L 27.78125 28.421875 
L 27.78125 35.59375 
L 49.421875 35.59375 
L 49.421875 2.984375 
Q 47.40625 2.046875 45.1875 1.3125 
Q 42.96875 0.59375 40.640625 0.09375 
Q 38.328125 -0.390625 36.03125 -0.625 
Q 33.734375 -0.875 31.59375 -0.875 
Q 25.046875 -0.875 19.796875 1.171875 
Q 14.546875 3.21875 10.859375 7.25 
Q 7.171875 11.28125 5.1875 17.28125 
Q 3.21875 23.296875 3.21875 31.203125 
Q 3.21875 39.0625 5.421875 45.28125 
Q 7.625 51.515625 11.59375 55.828125 
Q 15.578125 60.15625 21.171875 62.421875 
Q 26.765625 64.703125 33.5 64.703125 
Q 37.796875 64.703125 41.671875 63.9375 
Q 45.5625 63.1875 49.125 61.53125 
z
" id="Consolas-47"/>
     <path d="M 47.21875 0 
L 39.59375 0 
L 39.3125 7.90625 
Q 37.109375 5.375 35.125 3.6875 
Q 33.15625 2 31.203125 0.96875 
Q 29.25 -0.046875 27.265625 -0.453125 
Q 25.296875 -0.875 23.09375 -0.875 
Q 15.53125 -0.875 11.671875 3.5625 
Q 7.8125 8.015625 7.8125 17 
L 7.8125 49.03125 
L 16.3125 49.03125 
L 16.3125 17.671875 
Q 16.3125 6.390625 24.8125 6.390625 
Q 26.375 6.390625 27.859375 6.859375 
Q 29.34375 7.328125 30.984375 8.46875 
Q 32.625 9.625 34.5 11.578125 
Q 36.375 13.53125 38.71875 16.5 
L 38.71875 49.03125 
L 47.21875 49.03125 
z
" id="Consolas-75"/>
     <path d="M 24.515625 62.015625 
L 10.015625 62.015625 
L 10.015625 69 
L 33.109375 69 
L 33.109375 7.078125 
L 47.703125 7.078125 
L 47.703125 0 
L 8.40625 0 
L 8.40625 7.078125 
L 24.515625 7.078125 
z
" id="Consolas-6c"/>
     <path d="M 51.3125 61.078125 
Q 44.625 62.5 39.796875 62.5 
Q 28.328125 62.5 28.328125 50.484375 
L 28.328125 41.890625 
L 49.8125 41.890625 
L 49.8125 34.8125 
L 28.328125 34.8125 
L 28.328125 0 
L 19.671875 0 
L 19.671875 34.8125 
L 3.90625 34.8125 
L 3.90625 41.890625 
L 19.671875 41.890625 
L 19.671875 50 
Q 19.671875 69.578125 40.09375 69.578125 
Q 45.171875 69.578125 51.3125 68.40625 
z
M 0 49.03125 
z
" id="Consolas-66"/>
     <path d="M 48.6875 17.28125 
Q 48.6875 12.75 46.828125 9.328125 
Q 44.96875 5.90625 41.640625 3.640625 
Q 38.328125 1.375 33.65625 0.25 
Q 29 -0.875 23.390625 -0.875 
Q 20.84375 -0.875 18.328125 -0.671875 
Q 15.828125 -0.484375 13.5 -0.1875 
Q 11.1875 0.09375 9.125 0.484375 
Q 7.078125 0.875 5.421875 1.3125 
L 5.421875 9.71875 
Q 9.078125 8.34375 13.640625 7.5625 
Q 18.21875 6.78125 24.03125 6.78125 
Q 28.21875 6.78125 31.171875 7.4375 
Q 34.125 8.109375 36 9.390625 
Q 37.890625 10.6875 38.734375 12.546875 
Q 39.59375 14.40625 39.59375 16.796875 
Q 39.59375 19.390625 38.15625 21.21875 
Q 36.71875 23.046875 34.375 24.484375 
Q 32.03125 25.921875 29.03125 27.125 
Q 26.03125 28.328125 22.90625 29.59375 
Q 19.78125 30.859375 16.765625 32.34375 
Q 13.765625 33.84375 11.421875 35.859375 
Q 9.078125 37.890625 7.640625 40.625 
Q 6.203125 43.359375 6.203125 47.125 
Q 6.203125 50.390625 7.5625 53.5625 
Q 8.9375 56.734375 11.8125 59.203125 
Q 14.703125 61.671875 19.21875 63.1875 
Q 23.734375 64.703125 29.984375 64.703125 
Q 31.59375 64.703125 33.46875 64.546875 
Q 35.359375 64.40625 37.28125 64.140625 
Q 39.203125 63.875 41.078125 63.53125 
Q 42.96875 63.1875 44.578125 62.796875 
L 44.578125 54.984375 
Q 40.828125 56.0625 37.0625 56.609375 
Q 33.296875 57.171875 29.78125 57.171875 
Q 22.3125 57.171875 18.796875 54.6875 
Q 15.28125 52.203125 15.28125 48 
Q 15.28125 45.40625 16.71875 43.546875 
Q 18.171875 41.703125 20.515625 40.234375 
Q 22.859375 38.765625 25.859375 37.5625 
Q 28.859375 36.375 31.984375 35.109375 
Q 35.109375 33.84375 38.109375 32.328125 
Q 41.109375 30.8125 43.453125 28.734375 
Q 45.796875 26.65625 47.234375 23.875 
Q 48.6875 21.09375 48.6875 17.28125 
z
" id="Consolas-53"/>
     <path d="M 47.3125 0.6875 
Q 44.4375 -0.046875 41.359375 -0.359375 
Q 38.28125 -0.6875 35.109375 -0.6875 
Q 25.875 -0.6875 21.328125 3.484375 
Q 16.796875 7.671875 16.796875 16.3125 
L 16.796875 41.890625 
L 3.078125 41.890625 
L 3.078125 49.03125 
L 16.796875 49.03125 
L 16.796875 62.5 
L 25.296875 64.703125 
L 25.296875 49.03125 
L 47.3125 49.03125 
L 47.3125 41.890625 
L 25.296875 41.890625 
L 25.296875 17 
Q 25.296875 11.71875 28.09375 9.109375 
Q 30.90625 6.5 36.375 6.5 
Q 38.71875 6.5 41.5 6.859375 
Q 44.28125 7.234375 47.3125 8.015625 
z
" id="Consolas-74"/>
     <path d="M 9.8125 49.03125 
L 17.578125 49.03125 
L 17.828125 39.984375 
Q 22.171875 45.21875 26.390625 47.5625 
Q 30.609375 49.90625 34.90625 49.90625 
Q 42.53125 49.90625 46.453125 44.96875 
Q 50.390625 40.046875 50.09375 30.328125 
L 41.5 30.328125 
Q 41.65625 36.765625 39.625 39.671875 
Q 37.59375 42.578125 33.6875 42.578125 
Q 31.984375 42.578125 30.25 41.96875 
Q 28.515625 41.359375 26.6875 40.015625 
Q 24.859375 38.671875 22.796875 36.5625 
Q 20.75 34.46875 18.40625 31.5 
L 18.40625 0 
L 9.8125 0 
z
" id="Consolas-72"/>
     <path d="M 49.21875 27.09375 
Q 49.21875 25.296875 49.171875 24.078125 
Q 49.125 22.859375 49.03125 21.78125 
L 14.59375 21.78125 
Q 14.59375 14.265625 18.796875 10.234375 
Q 23 6.203125 30.90625 6.203125 
Q 33.0625 6.203125 35.203125 6.375 
Q 37.359375 6.546875 39.359375 6.828125 
Q 41.359375 7.125 43.1875 7.484375 
Q 45.015625 7.859375 46.578125 8.296875 
L 46.578125 1.3125 
Q 43.109375 0.34375 38.734375 -0.265625 
Q 34.375 -0.875 29.6875 -0.875 
Q 23.390625 -0.875 18.84375 0.828125 
Q 14.3125 2.546875 11.40625 5.78125 
Q 8.5 9.03125 7.109375 13.734375 
Q 5.71875 18.453125 5.71875 24.421875 
Q 5.71875 29.59375 7.203125 34.203125 
Q 8.6875 38.8125 11.546875 42.296875 
Q 14.40625 45.796875 18.546875 47.84375 
Q 22.703125 49.90625 27.984375 49.90625 
Q 33.109375 49.90625 37.0625 48.296875 
Q 41.015625 46.6875 43.71875 43.71875 
Q 46.4375 40.765625 47.828125 36.546875 
Q 49.21875 32.328125 49.21875 27.09375 
z
M 40.375 28.328125 
Q 40.53125 31.59375 39.75 34.296875 
Q 38.96875 37.015625 37.328125 38.96875 
Q 35.6875 40.921875 33.25 42.015625 
Q 30.8125 43.109375 27.59375 43.109375 
Q 24.8125 43.109375 22.515625 42.03125 
Q 20.21875 40.96875 18.546875 39.015625 
Q 16.890625 37.0625 15.859375 34.328125 
Q 14.84375 31.59375 14.59375 28.328125 
z
" id="Consolas-65"/>
     <path d="M 39.3125 0 
L 39.109375 6.59375 
Q 35.109375 2.640625 30.984375 0.875 
Q 26.859375 -0.875 22.3125 -0.875 
Q 18.109375 -0.875 15.125 0.1875 
Q 12.15625 1.265625 10.21875 3.140625 
Q 8.296875 5.03125 7.390625 7.5625 
Q 6.5 10.109375 6.5 13.09375 
Q 6.5 20.453125 11.984375 24.625 
Q 17.484375 28.8125 28.21875 28.8125 
L 38.375 28.8125 
L 38.375 33.109375 
Q 38.375 37.453125 35.59375 40.0625 
Q 32.8125 42.671875 27.09375 42.671875 
Q 22.953125 42.671875 18.921875 41.75 
Q 14.890625 40.828125 10.59375 39.109375 
L 10.59375 46.78125 
Q 12.203125 47.359375 14.171875 47.921875 
Q 16.15625 48.484375 18.359375 48.921875 
Q 20.5625 49.359375 22.953125 49.625 
Q 25.34375 49.90625 27.78125 49.90625 
Q 32.234375 49.90625 35.796875 48.921875 
Q 39.359375 47.953125 41.8125 45.953125 
Q 44.28125 43.953125 45.59375 40.921875 
Q 46.921875 37.890625 46.921875 33.796875 
L 46.921875 0 
z
M 38.375 22.3125 
L 27.59375 22.3125 
Q 24.421875 22.3125 22.125 21.671875 
Q 19.828125 21.046875 18.359375 19.875 
Q 16.890625 18.703125 16.1875 17.0625 
Q 15.484375 15.4375 15.484375 13.375 
Q 15.484375 11.96875 15.921875 10.671875 
Q 16.359375 9.375 17.328125 8.375 
Q 18.3125 7.375 19.875 6.78125 
Q 21.4375 6.203125 23.6875 6.203125 
Q 26.609375 6.203125 30.390625 7.984375 
Q 34.1875 9.765625 38.375 13.625 
z
" id="Consolas-61"/>
     <path d="M 42.78125 0 
L 42.78125 35.203125 
Q 42.78125 37.5 42.609375 38.96875 
Q 42.4375 40.4375 42.0625 41.28125 
Q 41.703125 42.140625 41.140625 42.484375 
Q 40.578125 42.828125 39.75 42.828125 
Q 38.765625 42.828125 37.9375 42.234375 
Q 37.109375 41.65625 36.15625 40.328125 
Q 35.203125 39.015625 34.046875 36.84375 
Q 32.90625 34.671875 31.34375 31.5 
L 31.34375 0 
L 23.578125 0 
L 23.578125 34.28125 
Q 23.578125 36.96875 23.40625 38.625 
Q 23.25 40.28125 22.875 41.203125 
Q 22.515625 42.140625 21.921875 42.484375 
Q 21.34375 42.828125 20.515625 42.828125 
Q 19.625 42.828125 18.84375 42.328125 
Q 18.0625 41.84375 17.109375 40.578125 
Q 16.15625 39.3125 14.984375 37.109375 
Q 13.8125 34.90625 12.203125 31.5 
L 12.203125 0 
L 4.390625 0 
L 4.390625 49.03125 
L 10.890625 49.03125 
L 11.28125 39.703125 
Q 12.546875 42.484375 13.734375 44.4375 
Q 14.9375 46.390625 16.203125 47.578125 
Q 17.484375 48.78125 18.921875 49.34375 
Q 20.359375 49.90625 22.125 49.90625 
Q 26.078125 49.90625 28.125 47.3125 
Q 30.171875 44.734375 30.171875 39.3125 
Q 31.34375 41.84375 32.46875 43.8125 
Q 33.59375 45.796875 34.890625 47.140625 
Q 36.1875 48.484375 37.75 49.1875 
Q 39.3125 49.90625 41.359375 49.90625 
Q 50.59375 49.90625 50.59375 35.6875 
L 50.59375 0 
z
" id="Consolas-6d"/>
    </defs>
    <g transform="translate(110.16 472.47685)scale(0.14 -0.14)">
     <use xlink:href="#Consolas-42"/>
     <use x="54.980469" xlink:href="#Consolas-6f"/>
     <use x="109.960938" xlink:href="#Consolas-78"/>
     <use x="164.941406" xlink:href="#Consolas-3a"/>
     <use x="219.921875" xlink:href="#Consolas-20"/>
     <use x="274.902344" xlink:href="#Consolas-47"/>
     <use x="329.882812" xlink:href="#Consolas-75"/>
     <use x="384.863281" xlink:href="#Consolas-6c"/>
     <use x="439.84375" xlink:href="#Consolas-66"/>
     <use x="494.824219" xlink:href="#Consolas-53"/>
     <use x="549.804688" xlink:href="#Consolas-74"/>
     <use x="604.785156" xlink:href="#Consolas-72"/>
     <use x="659.765625" xlink:href="#Consolas-65"/>
     <use x="714.746094" xlink:href="#Consolas-61"/>
     <use x="769.726562" xlink:href="#Consolas-6d"/>
    </g>
    <!-- Period: JFM 2017 -->
    <defs>
     <path d="M 49.609375 44.28125 
Q 49.609375 40.375 48.140625 36.546875 
Q 46.6875 32.71875 43.609375 29.6875 
Q 40.53125 26.65625 35.734375 24.78125 
Q 30.953125 22.90625 24.3125 22.90625 
L 16.40625 22.90625 
L 16.40625 0 
L 7.71875 0 
L 7.71875 63.8125 
L 25.6875 63.8125 
Q 30.421875 63.8125 34.765625 62.765625 
Q 39.109375 61.71875 42.40625 59.375 
Q 45.703125 57.03125 47.65625 53.3125 
Q 49.609375 49.609375 49.609375 44.28125 
z
M 40.578125 43.890625 
Q 40.578125 50.046875 36.546875 53.3125 
Q 32.515625 56.59375 25.296875 56.59375 
L 16.40625 56.59375 
L 16.40625 30.328125 
L 24.515625 30.328125 
Q 32.234375 30.328125 36.40625 33.6875 
Q 40.578125 37.0625 40.578125 43.890625 
z
" id="Consolas-50"/>
     <path d="M 24.515625 42 
L 10.015625 42 
L 10.015625 49.03125 
L 33.109375 49.03125 
L 33.109375 7.078125 
L 47.703125 7.078125 
L 47.703125 0 
L 8.40625 0 
L 8.40625 7.078125 
L 24.515625 7.078125 
z
M 27.484375 69.578125 
Q 28.90625 69.578125 30.125 69.0625 
Q 31.34375 68.5625 32.25 67.625 
Q 33.15625 66.703125 33.671875 65.5 
Q 34.1875 64.3125 34.1875 62.890625 
Q 34.1875 61.53125 33.671875 60.296875 
Q 33.15625 59.078125 32.25 58.15625 
Q 31.34375 57.234375 30.125 56.71875 
Q 28.90625 56.203125 27.484375 56.203125 
Q 26.078125 56.203125 24.859375 56.71875 
Q 23.640625 57.234375 22.734375 58.15625 
Q 21.828125 59.078125 21.3125 60.296875 
Q 20.796875 61.53125 20.796875 62.890625 
Q 20.796875 64.3125 21.3125 65.5 
Q 21.828125 66.703125 22.734375 67.625 
Q 23.640625 68.5625 24.859375 69.0625 
Q 26.078125 69.578125 27.484375 69.578125 
z
" id="Consolas-69"/>
     <path d="M 5.328125 23.484375 
Q 5.328125 29.734375 7.03125 34.59375 
Q 8.734375 39.453125 11.890625 42.796875 
Q 15.046875 46.140625 19.453125 47.875 
Q 23.875 49.609375 29.296875 49.609375 
Q 31.640625 49.609375 33.90625 49.3125 
Q 36.1875 49.03125 38.375 48.390625 
L 38.375 69 
L 46.921875 69 
L 46.921875 0 
L 39.3125 0 
L 39.015625 9.28125 
Q 35.453125 4.109375 31.296875 1.609375 
Q 27.15625 -0.875 22.3125 -0.875 
Q 18.109375 -0.875 14.90625 0.875 
Q 11.71875 2.640625 9.59375 5.828125 
Q 7.46875 9.03125 6.390625 13.515625 
Q 5.328125 18.015625 5.328125 23.484375 
z
M 14.015625 24.03125 
Q 14.015625 15.140625 16.625 10.765625 
Q 19.234375 6.390625 24.03125 6.390625 
Q 27.25 6.390625 30.828125 9.265625 
Q 34.421875 12.15625 38.375 17.828125 
L 38.375 40.578125 
Q 36.28125 41.546875 33.734375 42.0625 
Q 31.203125 42.578125 28.71875 42.578125 
Q 21.78125 42.578125 17.890625 38.078125 
Q 14.015625 33.59375 14.015625 24.03125 
z
" id="Consolas-64"/>
     <path d="M 42.828125 63.8125 
L 42.828125 19.484375 
Q 42.828125 15.375 41.59375 11.6875 
Q 40.375 8.015625 37.890625 5.28125 
Q 35.40625 2.546875 31.640625 0.921875 
Q 27.875 -0.6875 22.796875 -0.6875 
Q 20.90625 -0.6875 18.921875 -0.40625 
Q 16.9375 -0.140625 15.109375 0.3125 
Q 13.28125 0.78125 11.671875 1.4375 
Q 10.0625 2.09375 8.890625 2.875 
L 8.890625 11.625 
Q 11.921875 9.421875 15.59375 8.15625 
Q 19.28125 6.890625 22.90625 6.890625 
Q 28.21875 6.890625 31.09375 10.125 
Q 33.984375 13.375 33.984375 19.484375 
L 33.984375 56.296875 
L 9.71875 56.296875 
L 9.71875 63.8125 
z
" id="Consolas-4a"/>
     <path d="M 46 56.390625 
L 18.890625 56.390625 
L 18.890625 35.6875 
L 44.578125 35.6875 
L 44.578125 28.421875 
L 18.890625 28.421875 
L 18.890625 0 
L 10.015625 0 
L 10.015625 63.8125 
L 46 63.8125 
z
" id="Consolas-46"/>
     <path d="M 52.59375 0 
L 44.09375 0 
L 42.828125 39.796875 
L 42.28125 55.078125 
L 39.3125 46.1875 
L 29.890625 20.796875 
L 23.875 20.796875 
L 14.890625 45.21875 
L 11.921875 55.078125 
L 11.71875 39.109375 
L 10.59375 0 
L 2.390625 0 
L 5.515625 63.8125 
L 15.828125 63.8125 
L 24.421875 39.796875 
L 27.203125 31.6875 
L 29.890625 39.796875 
L 38.921875 63.8125 
L 49.515625 63.8125 
z
" id="Consolas-4d"/>
     <path d="M 49.21875 0 
L 7.171875 0 
L 7.171875 7.625 
L 23.6875 24.03125 
Q 27.734375 28.03125 30.265625 30.953125 
Q 32.8125 33.890625 34.21875 36.296875 
Q 35.640625 38.71875 36.125 40.859375 
Q 36.625 43.015625 36.625 45.515625 
Q 36.625 47.859375 35.984375 49.96875 
Q 35.359375 52.09375 34.03125 53.703125 
Q 32.71875 55.328125 30.609375 56.25 
Q 28.515625 57.171875 25.59375 57.171875 
Q 21.53125 57.171875 18.203125 55.359375 
Q 14.890625 53.5625 12.109375 50.6875 
L 7.421875 56.296875 
Q 11.03125 60.109375 15.734375 62.40625 
Q 20.453125 64.703125 26.703125 64.703125 
Q 30.953125 64.703125 34.4375 63.421875 
Q 37.9375 62.15625 40.46875 59.765625 
Q 43.015625 57.375 44.40625 53.90625 
Q 45.796875 50.4375 45.796875 46.09375 
Q 45.796875 42.4375 44.8125 39.3125 
Q 43.84375 36.1875 41.859375 33.078125 
Q 39.890625 29.984375 36.890625 26.65625 
Q 33.890625 23.34375 29.78125 19.390625 
L 18.21875 8.109375 
L 49.21875 8.109375 
z
" id="Consolas-32"/>
     <path d="M 50.6875 31.890625 
Q 50.6875 24.5625 49.21875 18.53125 
Q 47.75 12.5 44.765625 8.171875 
Q 41.796875 3.859375 37.375 1.484375 
Q 32.953125 -0.875 27 -0.875 
Q 21.875 -0.875 17.671875 1.046875 
Q 13.484375 2.984375 10.5 6.984375 
Q 7.515625 10.984375 5.90625 17.1875 
Q 4.296875 23.390625 4.296875 31.890625 
Q 4.296875 39.203125 5.78125 45.25 
Q 7.28125 51.3125 10.234375 55.640625 
Q 13.1875 59.96875 17.625 62.328125 
Q 22.078125 64.703125 27.984375 64.703125 
Q 33.109375 64.703125 37.296875 62.765625 
Q 41.5 60.84375 44.484375 56.8125 
Q 47.46875 52.78125 49.078125 46.578125 
Q 50.6875 40.375 50.6875 31.890625 
z
M 42.09375 31.59375 
Q 42.09375 33.25 41.96875 34.890625 
Q 41.84375 36.53125 41.703125 38.09375 
L 14.703125 18.015625 
Q 15.4375 15.484375 16.546875 13.328125 
Q 17.671875 11.1875 19.25 9.640625 
Q 20.84375 8.109375 22.875 7.25 
Q 24.90625 6.390625 27.484375 6.390625 
Q 30.8125 6.390625 33.515625 8 
Q 36.234375 9.625 38.140625 12.796875 
Q 40.046875 15.96875 41.0625 20.671875 
Q 42.09375 25.390625 42.09375 31.59375 
z
M 12.890625 32.171875 
Q 12.890625 30.671875 12.90625 29.15625 
Q 12.9375 27.640625 13.09375 26.21875 
L 40.09375 46.1875 
Q 39.359375 48.6875 38.234375 50.734375 
Q 37.109375 52.78125 35.546875 54.265625 
Q 33.984375 55.765625 31.984375 56.59375 
Q 29.984375 57.421875 27.484375 57.421875 
Q 24.171875 57.421875 21.453125 55.8125 
Q 18.75 54.203125 16.84375 51 
Q 14.9375 47.796875 13.90625 43.078125 
Q 12.890625 38.375 12.890625 32.171875 
z
" id="Consolas-30"/>
     <path d="M 48.6875 0 
L 8.59375 0 
L 8.59375 7.90625 
L 25 7.90625 
L 25 54.5 
L 9.71875 46.1875 
L 6.59375 53.421875 
L 26.90625 64.109375 
L 34.421875 64.109375 
L 34.421875 7.90625 
L 48.6875 7.90625 
z
" id="Consolas-31"/>
     <path d="M 48.875 55.90625 
L 22.125 0 
L 12.40625 0 
L 40.1875 55.90625 
L 5.71875 55.90625 
L 5.71875 63.8125 
L 48.875 63.8125 
z
" id="Consolas-37"/>
    </defs>
    <g transform="translate(110.16 486.871037)scale(0.14 -0.14)">
     <use xlink:href="#Consolas-50"/>
     <use x="54.980469" xlink:href="#Consolas-65"/>
     <use x="109.960938" xlink:href="#Consolas-72"/>
     <use x="164.941406" xlink:href="#Consolas-69"/>
     <use x="219.921875" xlink:href="#Consolas-6f"/>
     <use x="274.902344" xlink:href="#Consolas-64"/>
     <use x="329.882812" xlink:href="#Consolas-3a"/>
     <use x="384.863281" xlink:href="#Consolas-20"/>
     <use x="439.84375" xlink:href="#Consolas-4a"/>
     <use x="494.824219" xlink:href="#Consolas-46"/>
     <use x="549.804688" xlink:href="#Consolas-4d"/>
     <use x="604.785156" xlink:href="#Consolas-20"/>
     <use x="659.765625" xlink:href="#Consolas-32"/>
     <use x="714.746094" xlink:href="#Consolas-30"/>
     <use x="769.726562" xlink:href="#Consolas-31"/>
     <use x="824.707031" xlink:href="#Consolas-37"/>
    </g>
    <!-- Segments: 160 p -->
    <defs>
     <path d="M 43.109375 42.09375 
Q 44.484375 40.375 45.234375 38.109375 
Q 46 35.84375 46 33.203125 
Q 46 29.390625 44.609375 26.234375 
Q 43.21875 23.09375 40.671875 20.84375 
Q 38.140625 18.609375 34.59375 17.359375 
Q 31.0625 16.109375 26.8125 16.109375 
Q 23.734375 16.109375 21.046875 16.765625 
Q 18.359375 17.4375 16.796875 18.40625 
Q 15.875 17.046875 15.234375 15.8125 
Q 14.59375 14.59375 14.59375 13.09375 
Q 14.59375 11.234375 16.375 10.015625 
Q 18.171875 8.796875 21.09375 8.6875 
L 33.984375 8.203125 
Q 37.640625 8.109375 40.734375 7.28125 
Q 43.84375 6.453125 46.0625 4.890625 
Q 48.296875 3.328125 49.53125 1.03125 
Q 50.78125 -1.265625 50.78125 -4.296875 
Q 50.78125 -7.5625 49.359375 -10.484375 
Q 47.953125 -13.421875 45 -15.640625 
Q 42.046875 -17.875 37.5 -19.1875 
Q 32.953125 -20.515625 26.703125 -20.515625 
Q 20.75 -20.515625 16.578125 -19.5625 
Q 12.40625 -18.609375 9.71875 -16.921875 
Q 7.03125 -15.234375 5.8125 -12.90625 
Q 4.59375 -10.59375 4.59375 -7.8125 
Q 4.59375 -4.25 6.25 -1.5625 
Q 7.90625 1.125 11.375 3.609375 
Q 10.109375 4.203125 9.171875 5.078125 
Q 8.25 5.953125 7.65625 7 
Q 7.078125 8.0625 6.78125 9.234375 
Q 6.5 10.40625 6.5 11.53125 
Q 6.5 14.703125 7.984375 17.328125 
Q 9.46875 19.96875 11.53125 22.3125 
Q 10.59375 23.4375 9.890625 24.515625 
Q 9.1875 25.59375 8.671875 26.828125 
Q 8.15625 28.078125 7.890625 29.515625 
Q 7.625 30.953125 7.625 32.8125 
Q 7.625 36.625 9.015625 39.765625 
Q 10.40625 42.921875 12.921875 45.15625 
Q 15.4375 47.40625 18.96875 48.65625 
Q 22.515625 49.90625 26.8125 49.90625 
Q 28.609375 49.90625 30.265625 49.65625 
Q 31.9375 49.421875 33.203125 49.03125 
L 50.984375 49.03125 
L 50.984375 42.09375 
z
M 13.625 -7.078125 
Q 13.625 -10.546875 17.234375 -12.125 
Q 20.84375 -13.71875 27.296875 -13.71875 
Q 31.34375 -13.71875 34.09375 -12.984375 
Q 36.859375 -12.25 38.546875 -11.046875 
Q 40.234375 -9.859375 40.96875 -8.3125 
Q 41.703125 -6.78125 41.703125 -5.171875 
Q 41.703125 -2.203125 39.25 -0.78125 
Q 36.8125 0.640625 31.78125 0.875 
L 19 1.3125 
Q 17.390625 0.25 16.328125 -0.78125 
Q 15.28125 -1.8125 14.6875 -2.859375 
Q 14.109375 -3.90625 13.859375 -4.953125 
Q 13.625 -6 13.625 -7.078125 
z
M 16.21875 33.015625 
Q 16.21875 30.671875 17 28.71875 
Q 17.78125 26.765625 19.1875 25.390625 
Q 20.609375 24.03125 22.53125 23.265625 
Q 24.46875 22.515625 26.8125 22.515625 
Q 29.34375 22.515625 31.3125 23.359375 
Q 33.296875 24.21875 34.640625 25.6875 
Q 35.984375 27.15625 36.6875 29.046875 
Q 37.40625 30.953125 37.40625 33.015625 
Q 37.40625 35.359375 36.625 37.3125 
Q 35.84375 39.265625 34.421875 40.625 
Q 33.015625 42 31.078125 42.75 
Q 29.15625 43.5 26.8125 43.5 
Q 24.265625 43.5 22.28125 42.625 
Q 20.3125 41.75 18.96875 40.3125 
Q 17.625 38.875 16.921875 36.96875 
Q 16.21875 35.0625 16.21875 33.015625 
z
" id="Consolas-67"/>
     <path d="M 7.8125 49.03125 
L 15.375 49.03125 
L 15.71875 41.109375 
Q 17.875 43.65625 19.875 45.328125 
Q 21.875 47.015625 23.796875 48.046875 
Q 25.734375 49.078125 27.734375 49.484375 
Q 29.734375 49.90625 31.890625 49.90625 
Q 39.453125 49.90625 43.328125 45.4375 
Q 47.21875 40.96875 47.21875 31.984375 
L 47.21875 0 
L 38.71875 0 
L 38.71875 31.296875 
Q 38.71875 37.0625 36.5625 39.8125 
Q 34.421875 42.578125 30.171875 42.578125 
Q 28.609375 42.578125 27.125 42.109375 
Q 25.640625 41.65625 24.015625 40.5 
Q 22.40625 39.359375 20.53125 37.40625 
Q 18.65625 35.453125 16.3125 32.515625 
L 16.3125 0 
L 7.8125 0 
z
" id="Consolas-6e"/>
     <path d="M 46.625 13.375 
Q 46.625 10.796875 45.75 8.734375 
Q 44.875 6.6875 43.359375 5.09375 
Q 41.84375 3.515625 39.84375 2.390625 
Q 37.84375 1.265625 35.5625 0.53125 
Q 33.296875 -0.203125 30.90625 -0.53125 
Q 28.515625 -0.875 26.21875 -0.875 
Q 21.234375 -0.875 17.0625 -0.4375 
Q 12.890625 0 8.890625 0.984375 
L 8.890625 8.796875 
Q 13.1875 7.5625 17.4375 6.921875 
Q 21.6875 6.296875 25.875 6.296875 
Q 31.984375 6.296875 34.90625 7.953125 
Q 37.84375 9.625 37.84375 12.703125 
Q 37.84375 14.015625 37.375 15.0625 
Q 36.921875 16.109375 35.6875 17.0625 
Q 34.46875 18.015625 31.90625 19.03125 
Q 29.34375 20.0625 24.90625 21.390625 
Q 21.578125 22.359375 18.765625 23.609375 
Q 15.96875 24.859375 13.90625 26.5625 
Q 11.859375 28.265625 10.6875 30.5625 
Q 9.515625 32.859375 9.515625 35.984375 
Q 9.515625 38.03125 10.46875 40.46875 
Q 11.421875 42.921875 13.71875 45.015625 
Q 16.015625 47.125 19.921875 48.515625 
Q 23.828125 49.90625 29.6875 49.90625 
Q 32.5625 49.90625 36.078125 49.578125 
Q 39.59375 49.265625 43.40625 48.484375 
L 43.40625 40.921875 
Q 39.40625 41.890625 35.8125 42.359375 
Q 32.234375 42.828125 29.59375 42.828125 
Q 26.421875 42.828125 24.25 42.328125 
Q 22.078125 41.84375 20.734375 40.984375 
Q 19.390625 40.140625 18.796875 38.984375 
Q 18.21875 37.84375 18.21875 36.53125 
Q 18.21875 35.203125 18.71875 34.125 
Q 19.234375 33.0625 20.625 32.0625 
Q 22.015625 31.0625 24.5 30.046875 
Q 27 29.046875 31 27.875 
Q 35.359375 26.609375 38.328125 25.21875 
Q 41.3125 23.828125 43.15625 22.109375 
Q 45.015625 20.40625 45.8125 18.25 
Q 46.625 16.109375 46.625 13.375 
z
" id="Consolas-73"/>
     <path d="M 50 20.21875 
Q 50 15.828125 48.40625 11.96875 
Q 46.828125 8.109375 43.890625 5.25 
Q 40.96875 2.390625 36.84375 0.75 
Q 32.71875 -0.875 27.6875 -0.875 
Q 22.40625 -0.875 18.359375 0.796875 
Q 14.3125 2.484375 11.578125 5.96875 
Q 8.84375 9.46875 7.421875 14.796875 
Q 6 20.125 6 27.390625 
Q 6 32.28125 6.640625 36.859375 
Q 7.28125 41.453125 8.734375 45.5 
Q 10.203125 49.5625 12.640625 52.921875 
Q 15.09375 56.296875 18.71875 58.71875 
Q 22.359375 61.140625 27.296875 62.46875 
Q 32.234375 63.8125 38.71875 63.8125 
L 45.015625 63.8125 
L 45.015625 56.390625 
L 38.1875 56.390625 
Q 32.46875 56.390625 28.265625 55.015625 
Q 24.078125 53.65625 21.234375 51.171875 
Q 18.40625 48.6875 16.890625 45.171875 
Q 15.375 41.65625 14.984375 37.3125 
L 14.796875 35.296875 
Q 17.875 37.109375 21.890625 38.203125 
Q 25.921875 39.3125 30.609375 39.3125 
Q 35.453125 39.3125 39.078125 37.890625 
Q 42.71875 36.46875 45.140625 33.953125 
Q 47.5625 31.453125 48.78125 27.9375 
Q 50 24.421875 50 20.21875 
z
M 41.109375 19.671875 
Q 41.109375 22.609375 40.40625 24.96875 
Q 39.703125 27.34375 38.1875 28.96875 
Q 36.671875 30.609375 34.34375 31.515625 
Q 32.03125 32.421875 28.8125 32.421875 
Q 26.953125 32.421875 25.046875 32.078125 
Q 23.140625 31.734375 21.3125 31.125 
Q 19.484375 30.515625 17.8125 29.734375 
Q 16.15625 28.953125 14.796875 28.078125 
Q 14.796875 21.78125 15.671875 17.546875 
Q 16.546875 13.328125 18.28125 10.78125 
Q 20.015625 8.25 22.546875 7.171875 
Q 25.09375 6.109375 28.421875 6.109375 
Q 31.203125 6.109375 33.515625 7 
Q 35.84375 7.90625 37.515625 9.65625 
Q 39.203125 11.421875 40.15625 13.9375 
Q 41.109375 16.453125 41.109375 19.671875 
z
" id="Consolas-36"/>
     <path d="M 49.703125 25.390625 
Q 49.703125 18.84375 47.875 13.953125 
Q 46.046875 9.078125 42.8125 5.859375 
Q 39.59375 2.640625 35.203125 1.015625 
Q 30.8125 -0.59375 25.6875 -0.59375 
Q 23.34375 -0.59375 21.015625 -0.34375 
Q 18.703125 -0.09375 16.3125 0.484375 
L 16.3125 -20.015625 
L 7.8125 -20.015625 
L 7.8125 49.03125 
L 15.375 49.03125 
L 15.921875 40.828125 
Q 19.578125 45.84375 23.71875 47.875 
Q 27.875 49.90625 32.71875 49.90625 
Q 36.921875 49.90625 40.09375 48.140625 
Q 43.265625 46.390625 45.40625 43.1875 
Q 47.5625 39.984375 48.625 35.46875 
Q 49.703125 30.953125 49.703125 25.390625 
z
M 41.015625 25 
Q 41.015625 28.859375 40.453125 32.078125 
Q 39.890625 35.296875 38.671875 37.59375 
Q 37.453125 39.890625 35.546875 41.1875 
Q 33.640625 42.484375 31 42.484375 
Q 29.390625 42.484375 27.734375 41.96875 
Q 26.078125 41.453125 24.296875 40.25 
Q 22.515625 39.0625 20.53125 37.078125 
Q 18.5625 35.109375 16.3125 32.171875 
L 16.3125 8.40625 
Q 18.65625 7.421875 21.234375 6.859375 
Q 23.828125 6.296875 26.3125 6.296875 
Q 33.203125 6.296875 37.109375 10.953125 
Q 41.015625 15.625 41.015625 25 
z
" id="Consolas-70"/>
    </defs>
    <g transform="translate(110.16 501.265225)scale(0.14 -0.14)">
     <use xlink:href="#Consolas-53"/>
     <use x="54.980469" xlink:href="#Consolas-65"/>
     <use x="109.960938" xlink:href="#Consolas-67"/>
     <use x="164.941406" xlink:href="#Consolas-6d"/>
     <use x="219.921875" xlink:href="#Consolas-65"/>
     <use x="274.902344" xlink:href="#Consolas-6e"/>
     <use x="329.882812" xlink:href="#Consolas-74"/>
     <use x="384.863281" xlink:href="#Consolas-73"/>
     <use x="439.84375" xlink:href="#Consolas-3a"/>
     <use x="494.824219" xlink:href="#Consolas-20"/>
     <use x="549.804688" xlink:href="#Consolas-31"/>
     <use x="604.785156" xlink:href="#Consolas-36"/>
     <use x="659.765625" xlink:href="#Consolas-30"/>
     <use x="714.746094" xlink:href="#Consolas-20"/>
     <use x="769.726562" xlink:href="#Consolas-70"/>
    </g>
    <!-- Segm. used: 54 -->
    <defs>
     <path d="M 27.09375 15.375 
Q 28.765625 15.375 30.25 14.734375 
Q 31.734375 14.109375 32.828125 12.984375 
Q 33.9375 11.859375 34.5625 10.375 
Q 35.203125 8.890625 35.203125 7.171875 
Q 35.203125 5.515625 34.5625 4.046875 
Q 33.9375 2.59375 32.828125 1.484375 
Q 31.734375 0.390625 30.25 -0.234375 
Q 28.765625 -0.875 27.09375 -0.875 
Q 25.390625 -0.875 23.921875 -0.234375 
Q 22.46875 0.390625 21.359375 1.484375 
Q 20.265625 2.59375 19.625 4.046875 
Q 19 5.515625 19 7.171875 
Q 19 8.890625 19.625 10.375 
Q 20.265625 11.859375 21.359375 12.984375 
Q 22.46875 14.109375 23.921875 14.734375 
Q 25.390625 15.375 27.09375 15.375 
z
" id="Consolas-2e"/>
     <path d="M 47.609375 20.40625 
Q 47.609375 15.671875 45.546875 11.765625 
Q 43.5 7.859375 39.90625 5.046875 
Q 36.328125 2.25 31.4375 0.6875 
Q 26.5625 -0.875 20.90625 -0.875 
Q 19.484375 -0.875 17.84375 -0.796875 
Q 16.21875 -0.734375 14.59375 -0.609375 
Q 12.984375 -0.484375 11.4375 -0.34375 
Q 9.90625 -0.203125 8.6875 0 
L 8.6875 7.71875 
Q 11.328125 7.078125 14.71875 6.78125 
Q 18.109375 6.5 21.578125 6.5 
Q 25.484375 6.5 28.609375 7.421875 
Q 31.734375 8.34375 33.9375 10.078125 
Q 36.140625 11.8125 37.3125 14.28125 
Q 38.484375 16.75 38.484375 19.828125 
Q 38.484375 25.78125 34.203125 28.484375 
Q 29.9375 31.203125 21.921875 31.203125 
L 9.8125 31.203125 
L 9.8125 63.8125 
L 44.1875 63.8125 
L 44.1875 56.390625 
L 17.828125 56.390625 
L 17.828125 38.484375 
L 23.390625 38.484375 
Q 27.984375 38.484375 32.328125 37.640625 
Q 36.671875 36.8125 40.0625 34.734375 
Q 43.453125 32.671875 45.53125 29.171875 
Q 47.609375 25.6875 47.609375 20.40625 
z
" id="Consolas-35"/>
     <path d="M 52.390625 14.109375 
L 41.5 14.109375 
L 41.5 0 
L 32.8125 0 
L 32.8125 14.109375 
L 2.09375 14.109375 
L 2.09375 21.578125 
L 29.296875 63.8125 
L 41.5 63.8125 
L 41.5 21.578125 
L 52.390625 21.578125 
z
M 32.8125 55.609375 
L 10.59375 21.578125 
L 32.8125 21.578125 
z
" id="Consolas-34"/>
    </defs>
    <g transform="translate(110.16 515.729412)scale(0.14 -0.14)">
     <use xlink:href="#Consolas-53"/>
     <use x="54.980469" xlink:href="#Consolas-65"/>
     <use x="109.960938" xlink:href="#Consolas-67"/>
     <use x="164.941406" xlink:href="#Consolas-6d"/>
     <use x="219.921875" xlink:href="#Consolas-2e"/>
     <use x="274.902344" xlink:href="#Consolas-20"/>
     <use x="329.882812" xlink:href="#Consolas-75"/>
     <use x="384.863281" xlink:href="#Consolas-73"/>
     <use x="439.84375" xlink:href="#Consolas-65"/>
     <use x="494.824219" xlink:href="#Consolas-64"/>
     <use x="549.804688" xlink:href="#Consolas-3a"/>
     <use x="604.785156" xlink:href="#Consolas-20"/>
     <use x="659.765625" xlink:href="#Consolas-35"/>
     <use x="714.746094" xlink:href="#Consolas-34"/>
    </g>
    <!-- $\Delta$L: 7.0 km -->
    <defs>
     <path d="M 34.1875 63.1875 
L 14.15625 8.203125 
L 54.25 8.203125 
z
M 0.78125 0 
L 28.609375 72.90625 
L 39.796875 72.90625 
L 67.578125 0 
z
" id="DejaVuSans-394"/>
     <path d="M 48.09375 0 
L 11.375 0 
L 11.375 63.8125 
L 20.21875 63.8125 
L 20.21875 7.421875 
L 48.09375 7.421875 
z
" id="Consolas-4c"/>
     <path d="M 51.90625 0 
L 40.234375 0 
L 17.390625 26.265625 
L 17.390625 0 
L 8.890625 0 
L 8.890625 69 
L 17.390625 69 
L 17.390625 26.609375 
L 39.40625 49.03125 
L 50.640625 49.03125 
L 27.640625 26.421875 
z
" id="Consolas-6b"/>
    </defs>
    <g transform="translate(110.16 530.1936)scale(0.14 -0.14)">
     <use transform="translate(0 0.09375)" xlink:href="#DejaVuSans-394"/>
     <use transform="translate(68.408203 0.09375)" xlink:href="#Consolas-4c"/>
     <use transform="translate(123.388672 0.09375)" xlink:href="#Consolas-3a"/>
     <use transform="translate(178.369141 0.09375)" xlink:href="#Consolas-20"/>
     <use transform="translate(233.349609 0.09375)" xlink:href="#Consolas-37"/>
     <use transform="translate(288.330078 0.09375)" xlink:href="#Consolas-2e"/>
     <use transform="translate(343.310547 0.09375)" xlink:href="#Consolas-30"/>
     <use transform="translate(398.291016 0.09375)" xlink:href="#Consolas-20"/>
     <use transform="translate(453.271484 0.09375)" xlink:href="#Consolas-6b"/>
     <use transform="translate(508.251953 0.09375)" xlink:href="#Consolas-6d"/>
    </g>
   </g>
  </g>
 </g>
 <defs>
  <clipPath id="p9dd24fac38">
   <rect height="557.28" width="567" x="64.8" y="45.36"/>
  </clipPath>
 </defs>
</svg>
